<?xml version="1.0" encoding="UTF-8" standalone="no"?>
<svg
   id="Layer_1"
   version="1.1"
   viewBox="0 0 300 227.87442"
   sodipodi:docname="Minisrty-of-Education.svg"
   width="300"
   height="227.87442"
   inkscape:version="1.4 (e7c3feb1, 2024-10-09)"
   xmlns:inkscape="http://www.inkscape.org/namespaces/inkscape"
   xmlns:sodipodi="http://sodipodi.sourceforge.net/DTD/sodipodi-0.dtd"
   xmlns="http://www.w3.org/2000/svg"
   xmlns:svg="http://www.w3.org/2000/svg">
  <sodipodi:namedview
     id="namedview4"
     pagecolor="#ffffff"
     bordercolor="#000000"
     borderopacity="0.25"
     inkscape:showpageshadow="2"
     inkscape:pageopacity="0.0"
     inkscape:pagecheckerboard="true"
     inkscape:deskcolor="#d1d1d1"
     inkscape:zoom="0.60865327"
     inkscape:cx="248.91019"
     inkscape:cy="270.26882"
     inkscape:window-width="1440"
     inkscape:window-height="900"
     inkscape:window-x="0"
     inkscape:window-y="0"
     inkscape:window-maximized="0"
     inkscape:current-layer="Layer_1" />
  <!-- Generator: Adobe Illustrator 29.3.1, SVG Export Plug-In . SVG Version: 2.1.0 Build 151)  -->
  <defs
     id="defs4">
    <style
       id="style1">
      .st0 {
        fill: none;
      }

      .st1 {
        fill: url(#linear-gradient);
      }

      .st2 {
        clip-path: url(#clippath);
      }
    </style>
    <clipPath
       id="clippath">
      <path
         class="st0"
         d="m 284.2,686.5 h 5 v -26.8 h -5 z m 50,0 h 5 v -27.1 h -5 z m 96,-27.1 v 15.2 c 0,1.7 -0.2,3.2 -0.5,4.5 -0.3,1.2 -0.8,2.2 -1.4,2.9 -0.6,0.7 -1.3,1.2 -2.3,1.5 -0.6,0.2 -1.3,0.3 -2.3,0.4 -1,0 -1.8,-0.2 -2.3,-0.4 -0.9,-0.3 -1.7,-0.8 -2.3,-1.5 -0.6,-0.7 -1,-1.7 -1.4,-2.9 -0.3,-1.3 -0.5,-2.8 -0.5,-4.5 v -15.2 h -4.8 v 15.4 c 0,0 0,0.8 0,0.8 0.3,3 0.5,5.4 2,7.3 1.1,1.2 2.4,2.1 4,2.7 1.3,0.5 2.9,0.8 4.7,0.9 h 0.2 c 0,0 0,0 0,0 0.1,0 0.3,0 0.4,0 v 0 c 0,0 0.2,0 0.2,0 1.9,0 3.4,-0.4 4.8,-0.9 0.2,0 0.4,-0.2 0.6,-0.3 0.1,0 0.3,-0.1 0.4,-0.2 h 0.3 c 0,-0.1 0,5 0,5 0,1.7 -0.1,3.2 -0.5,4.5 -0.3,1.2 -0.8,2.2 -1.4,2.9 -0.6,0.7 -1.3,1.2 -2.3,1.5 -0.8,0.2 -1.7,0.4 -2.8,0.4 l 0.2,2.7 c 2,0 3.8,-0.3 5.4,-0.9 1.6,-0.6 2.9,-1.5 4,-2.7 1.6,-1.8 1.8,-4.2 2,-7.3 v -0.8 c 0,0 0,-15.1 0,-15.1 v -0.4 c 0,0 0,-15.4 0,-15.4 h -4.7 z m 166.6,0 v 24.4 h -9.4 c -3.6,0 -6.5,-2.9 -6.5,-6.5 V 659.4 H 576 v 14.2 c 0,5 1.6,7.6 3,9.2 1.1,1.2 2.4,2.1 4,2.7 1.3,0.5 2.9,0.8 4.7,0.9 v 0 c 0,0 14.1,0 14.1,0 v -27 z m 23.2,0.1 c -1.7,0 -3.3,0.4 -4.6,0.9 -1.6,0.6 -2.9,1.5 -4,2.7 -1.5,1.7 -3,4 -3,7.4 v 3.3 c 0,3.9 0.9,6.7 3,9.1 1.1,1.2 2.4,2.1 4,2.7 1.3,0.5 2.9,0.8 4.6,0.9 h 0.2 c 0,0 11.8,0 11.8,0 v -2.6 h -11.4 c -3.6,0 -6.5,-2.9 -6.5,-6.5 0,0 -0.2,-3 -0.2,-4.7 0,-1.7 0.2,-4.3 0.2,-4.3 0,-3.6 2.9,-6.5 6.5,-6.5 H 632 v -2.6 h -11.9 z m 70.9,27 h 5 v -27.1 h -5 z m 17.6,-10.3 c -0.4,-3.3 -0.6,-9.3 2,-12.1 1.2,-1.3 2.9,-2 4.7,-2 h 2 c 5.2,0 6.4,5.2 6.7,7.5 0.2,1.8 0.5,5.1 0,8.1 -0.3,1.5 -0.8,2.7 -1.4,3.7 -1.2,1.7 -3.1,2.6 -5.2,2.6 h -2 c -5.3,0 -6.5,-5.4 -6.7,-7.8 m 6.2,-16.8 h -0.1 c -1.7,0 -3.3,0.4 -4.6,0.9 -1.6,0.6 -2.9,1.5 -3.9,2.7 -1.4,1.6 -3,4.1 -3,9 v 1.9 c 0,3.8 0.9,6.6 3,9 1,1.2 2.4,2.1 3.9,2.7 1.3,0.5 2.9,0.8 4.6,0.9 h 3.1 c 1.7,0 3.3,-0.4 4.6,-0.9 1.5,-0.6 2.9,-1.5 3.9,-2.7 2,-2.4 3,-5.2 3,-9 V 672 c 0,-3.8 -0.9,-6.6 -3,-9 -1,-1.2 -2.4,-2.1 -3.9,-2.7 -1.3,-0.5 -2.9,-0.8 -4.6,-0.9 h -0.2 z m -416.4,0 v 27.1 h 5 v -24.4 h 9.4 c 3.6,0 6.5,2.9 6.5,6.5 v 17.9 h 5.1 v -14.2 c 0,-3.9 -0.9,-6.8 -3,-9.3 -1.1,-1.2 -2.4,-2.1 -4,-2.7 -1.4,-0.5 -3,-0.8 -4.7,-0.9 h -0.2 c 0,0 -14.2,0 -14.2,0 z m 105.7,0.1 c -2.1,0 -4,0.3 -5.7,0.9 -1.7,0.6 -3.1,1.6 -4.2,2.8 -1.6,1.9 -1.8,4.4 -2.1,7.6 v 0.9 c 0,0 0,14.8 0,14.8 h 4.9 v -14.6 c 0,-1.8 0.2,-3.3 0.5,-4.7 0.4,-1.3 0.8,-2.3 1.4,-3 0.6,-0.7 1.4,-1.3 2.4,-1.6 0.8,-0.3 1.9,-0.4 3.1,-0.4 h 2.1 v -2.9 H 404 Z m 331.1,-0.1 v 27.1 h 5 v -24.4 h 9.3 c 3.6,0 6.5,2.9 6.5,6.5 v 17.9 h 5.1 v -14.2 c 0,-3.9 -0.9,-6.8 -3,-9.3 -1.1,-1.2 -2.4,-2.1 -4,-2.7 -1.4,-0.5 -3,-0.8 -4.7,-0.9 h -0.2 c 0,0 -14.2,0 -14.2,0 z m -93.8,17.8 c 0,0 -0.2,-2.1 -0.2,-4.2 0,-2.1 0.2,-4.2 0.2,-4.2 0,-3.7 3,-6.6 6.7,-6.6 h 9.5 v 15.1 c 0,3.6 -3.2,6.7 -7,6.7 H 648 c -3.7,0 -6.7,-3 -6.7,-6.7 m 6.4,-17.9 h -0.1 c -1.8,0.1 -3.4,0.4 -4.8,0.9 -1.6,0.6 -3,1.6 -4.1,2.8 -2.1,2.5 -3.1,5.4 -3.1,9.4 l 0.2,3.4 c 0.4,2.8 1.3,5 2.9,6.9 1.1,1.2 2.5,2.2 4.1,2.8 0.8,0.3 1.6,0.4 2.4,0.6 1.7,0.4 3.3,0.3 4.9,0.4 1,0 1.8,0 2.7,-0.2 v 0 c 0.9,-0.2 1.8,-0.4 2.7,-0.8 0.7,-0.3 1.4,-0.7 1.9,-1 l 0.3,-0.2 v 2 h 5.1 v -27.1 h -15.1 z m -190.1,16.8 c -0.4,-3.4 -0.6,-9.4 2,-12.2 1.2,-1.3 2.9,-2 4.7,-2 h 2 c 5.2,0 6.4,5.3 6.7,7.5 0.2,1.8 0.5,5.2 -0.1,8.2 -0.3,1.5 -0.8,2.8 -1.4,3.7 -1.2,1.7 -3.1,2.6 -5.2,2.6 h -2 c -5.3,0 -6.5,-5.5 -6.7,-7.8 m 6.3,-16.8 h -0.1 c -1.7,0.1 -3.3,0.4 -4.6,0.9 -1.6,0.6 -2.9,1.5 -3.9,2.7 -2.1,2.4 -3,5.2 -3,9.1 v 1.9 c 0,3.9 0.9,6.6 3,9.1 1,1.2 2.3,2.1 3.9,2.7 1.3,0.5 2.9,0.8 4.6,0.9 h 3.1 c 1.7,0 3.3,-0.4 4.6,-0.9 1.6,-0.6 2.9,-1.5 3.9,-2.7 2.1,-2.4 3,-5.2 3,-9.1 v -1.9 c 0,-3.8 -0.9,-6.6 -3,-9.1 -1,-1.2 -2.4,-2.1 -3.9,-2.7 -1.3,-0.5 -2.9,-0.8 -4.6,-0.9 h -0.2 z m -111.8,-0.3 c -1.7,0.6 -2.7,1.3 -3.8,2.6 -2.2,2.5 -2.2,6.3 0,8.8 1.1,1.2 2.5,2.2 4.1,2.8 1.1,0.4 2.3,0.7 3.7,0.8 h 0.3 c 1.6,0.2 3.4,0.4 4.5,1.7 1.3,1.4 1.5,2.8 0.8,4.1 -1.6,2.8 -4.7,3.1 -7.5,3.1 h -5.6 v 3.5 c 1,0.1 8.1,0 9,-0.1 3.8,-0.4 6.5,-1.6 8.3,-3.7 1.4,-1.6 2,-3.9 1.4,-6 -0.3,-1.1 -0.8,-2 -1.4,-2.8 -1.1,-1.3 -2.5,-2.2 -4.1,-2.8 -0.9,-0.3 -2,-0.5 -3.2,-0.6 -2.7,-0.4 -5.7,-0.8 -6.4,-3.9 -0.4,-2.1 1.4,-3.7 3.4,-4.4 0.7,-0.2 1.6,-0.4 2.7,-0.4 h 5.2 v -3.3 c -0.9,0 -1.8,0 -2.8,0 -1,0 -2,0 -3.1,0 -1.9,0 -3.8,0.2 -5.5,0.8 m 20.1,-7.9 v 23.3 c 0,0 0,0.9 0,0.9 0.2,3 0.5,5.4 2,7.3 1.1,1.2 2.4,2.1 4,2.7 1.5,0.6 3.4,0.9 5.5,0.9 h 2.1 v -2.6 h -1.9 c -1,0 -2,-0.2 -2.9,-0.5 -0.9,-0.3 -1.7,-0.8 -2.3,-1.5 -0.6,-0.7 -1,-1.7 -1.4,-2.9 -0.3,-1.3 -0.4,-2.8 -0.4,-4.5 v -11.6 c 0,0 7.9,0 7.9,0 v -3.5 h -7.9 v -8 z m 298.7,0 v 23.3 c 0,0 0,0.9 0,0.9 0.3,3 0.5,5.4 2,7.2 1.1,1.2 2.4,2.1 4,2.7 1.5,0.6 3.3,0.9 5.5,0.9 h 2.1 v -2.6 h -1.9 c -1,0 -2,-0.2 -2.9,-0.5 -0.9,-0.3 -1.7,-0.8 -2.3,-1.5 -0.6,-0.7 -1,-1.6 -1.4,-2.9 -0.3,-1.3 -0.4,-2.8 -0.4,-4.5 v -12.1 c 0,0 7.9,0 7.9,0 v -3 h -7.9 v -8 h -4.7 z M 268,651 254.3,678.5 h -0.6 c 0,0 -13.9,-27.5 -13.9,-27.5 h -5.9 v 35.4 h 4.9 V 661 l 13,25.4 h 2.7 l 13,-26.2 1,-1.8 v 28 h 5.2 V 651 h -5.8 z m 16.2,2.5 v 0.8 c 0,1.4 1.1,2.5 2.5,2.5 1.4,0 2.4,-1.1 2.4,-2.5 v -0.8 c 0,-1.3 -1.1,-2.4 -2.4,-2.4 -1.3,0 -2.5,1.1 -2.5,2.4 m 50,0 v 0.8 c 0,1.4 1.1,2.5 2.5,2.5 1.4,0 2.5,-1.1 2.5,-2.5 v -0.8 c 0,-1.3 -1.1,-2.4 -2.5,-2.4 -1.4,0 -2.5,1.1 -2.5,2.4 m 213.5,23.9 v -8.8 c 0,-3.6 2.9,-6.5 6.5,-6.5 h 9.4 v 21.8 h -9.4 c -3.6,0 -6.5,-2.9 -6.5,-6.5 M 563.6,651 v 8.4 h -9.9 c -1.8,0.1 -3.4,0.4 -4.7,0.9 -1.6,0.6 -2.9,1.5 -4,2.7 -2.1,2.5 -3,5.3 -3,9.2 v 1.3 c 0,5 1.6,7.6 3,9.2 1.1,1.2 2.4,2.1 4,2.7 1.4,0.5 2.9,0.8 4.7,0.9 h 0.2 c 0,0 14.7,0 14.7,0 v -35.5 h -5 z m 127.3,2.5 v 0.2 c 0,1.3 1.1,2.4 2.5,2.4 1.4,0 2.4,-1.1 2.4,-2.4 v -0.2 c 0,-1.3 -1.1,-2.4 -2.4,-2.4 -1.3,0 -2.5,1.1 -2.5,2.4 M 514.6,651 v 35.5 h 23.9 v -2.6 h -18.9 v -15 h 12.6 v -2.7 h -12.6 v -12.1 h 18.9 v -3 h -23.9 z m -19.5,0 c -2.1,0 -3.9,0.3 -5.5,0.9 -1.6,0.6 -3,1.5 -4,2.7 -1.6,1.8 -1.8,4.2 -2,7.2 v 0.9 c 0,0 0,23.7 0,23.7 h 4.7 v -16.8 h 8 v -3 h -7.9 v -3.7 c 0,-1.7 0.1,-3.2 0.5,-4.5 0.3,-1.2 0.8,-2.2 1.4,-2.8 0.6,-0.7 1.3,-1.2 2.3,-1.5 0.7,-0.2 1.6,-0.4 2.7,-0.4 h 0.2 c 0,0 2.5,0 2.5,0 v -2.8 h -2.7 z M 289.6,611.5 c 0,2.5 2,4.5 4.5,4.5 2.5,0 4.5,-2 4.5,-4.5 0,-2.5 -2,-4.5 -4.5,-4.5 -2.5,0 -4.5,2 -4.5,4.5 m 13,0 c 0,2.5 2,4.5 4.5,4.5 2.5,0 4.5,-2 4.5,-4.5 0,-2.5 -2,-4.5 -4.5,-4.5 -2.5,0 -4.5,2 -4.5,4.5 m 294.9,-31 c 0,-5.6 4.5,-10.1 10.1,-10.1 H 628 v 20.2 h -30.5 z m 9.4,-16.8 c -9.8,0 -17.7,7.9 -17.7,17.7 v 16.5 h 47.1 v -34.1 h -29.4 z m 44.7,0 v 36.1 c 0,2.2 -0.3,4.2 -0.7,5.9 -0.5,1.6 -1.1,2.8 -1.8,3.7 -0.7,0.9 -1.7,1.5 -2.9,1.9 -1,0.4 -2.3,0.5 -3.9,0.5 h -0.2 l 0.4,4.5 h 0.2 c 2.8,0 5.4,-0.4 7.6,-1.3 2.2,-0.8 4.1,-2.1 5.5,-3.8 2.4,-2.8 3.8,-6.6 4.2,-11.2 v -36.4 h -8.5 z m 43.5,0 v 36.1 c 0,2.2 -0.3,4.2 -0.7,5.9 -0.5,1.6 -1.1,2.8 -1.8,3.7 -0.7,0.9 -1.7,1.5 -2.9,1.9 -1,0.4 -2.3,0.5 -3.9,0.5 h -0.2 l 0.4,4.5 h 0.1 c 2.8,0 5.4,-0.4 7.6,-1.3 2.2,-0.8 4,-2.1 5.5,-3.8 2.4,-2.8 3.8,-6.5 4.2,-11.2 v -36.4 h -8.5 z m 27.4,17.1 c 0,-5.7 4.6,-10.4 10.4,-10.4 h 19.9 v 20.2 h -30.3 z m 9.7,-17.1 c -9.9,0 -18,8 -18,17.9 v 16.2 h 38.5 v 2 c 0,2.2 -0.2,4.2 -0.6,5.9 -0.5,1.6 -1,2.8 -1.8,3.7 -0.7,0.9 -1.7,1.5 -2.9,1.9 -0.4,0.1 -0.9,0.2 -1.4,0.3 v 4.6 c 2,-0.2 3.9,-0.6 5.5,-1.2 2.2,-0.8 4.1,-2.1 5.5,-3.8 2.4,-2.8 3.8,-6.5 4.2,-11.2 v -36.4 h -29.1 z m -483.9,7.2 c 0,-0.3 0.2,-0.5 0.5,-0.5 h 23.8 c 0,0 0.6,0 0.6,0 0.4,0 0.7,0.1 1,0.2 4.9,0.9 8.5,5.2 8.5,10.2 v 9.8 H 248.3 Z M 531.7,545 v 45.6 h -20.6 v -27 h -8.2 v 27 H 420.7 V 581 c 0,-5.9 4.8,-10.6 10.7,-10.6 h 35.1 v -6.7 h -35.8 c -10.1,0 -18.2,8.2 -18.2,18.2 v 8.8 H 346.1 V 545.1 H 338 v 45.6 h -22.9 v -27 h -8.2 v 27 h -15.6 v -8.2 c 0,0 0,-0.1 0,-0.1 0,-5.8 -1.8,-10.4 -5.4,-13.6 -3.2,-3 -7.7,-4.7 -13.5,-5 h -32.5 v 34.7 c 0,2.2 -0.1,4.2 -0.5,5.9 -0.4,1.6 -1,2.8 -1.8,3.7 -0.7,0.9 -1.7,1.5 -2.9,1.9 -0.2,0 -0.4,0 -0.6,0.1 v 4.7 c 1.7,-0.2 3.2,-0.5 4.6,-1.1 2.2,-0.8 4,-2.1 5.5,-3.8 2.4,-2.8 3.8,-6.6 4.2,-11.2 v -0.9 h 291.8 v -52.7 h -8.5 z m 20.9,0 c 0,0 -0.1,0 -0.1,0.1 v 52.5 c 0,0 0,0.1 0.1,0.1 h 8 c 0,0 0.1,0 0.1,-0.1 v -52.5 c 0,0 0,-0.1 -0.1,-0.1 z m 120.3,52.8 h 8.2 v -52.7 h -8.2 z m 22,-48.3 c 0,2.5 2,4.5 4.5,4.5 2.5,0 4.5,-2 4.5,-4.5 0,-2.5 -2,-4.5 -4.5,-4.5 -2.5,0 -4.5,2 -4.5,4.5 m -202.4,0 c 0,2.5 2,4.5 4.5,4.5 2.5,0 4.5,-2 4.5,-4.5 0,-2.5 -2,-4.5 -4.5,-4.5 -2.5,0 -4.5,2 -4.5,4.5 m 13,0 c 0,2.5 2,4.5 4.5,4.5 2.5,0 4.5,-2 4.5,-4.5 0,-2.5 -2,-4.5 -4.5,-4.5 -2.5,0 -4.5,2 -4.5,4.5 m 98.2,0 c 0,2.5 2,4.5 4.5,4.5 2.5,0 4.5,-2 4.5,-4.5 0,-2.5 -2,-4.5 -4.5,-4.5 -2.5,0 -4.5,2 -4.5,4.5 m 13,0 c 0,2.5 2,4.5 4.5,4.5 2.5,0 4.5,-2 4.5,-4.5 0,-2.5 -2,-4.5 -4.5,-4.5 -2.5,0 -4.5,2 -4.5,4.5 M 494.6,466.1 c 0,2 0.8,3.9 2.3,5.3 1.4,1.4 3.3,2.3 5.3,2.2 2,0 4,-0.8 5.4,-2.2 1.4,-1.4 2.2,-3.4 2.2,-5.4 0,-2 -0.8,-4 -2.2,-5.4 -1.5,-1.4 -3.4,-2.2 -5.4,-2.2 -4,0 -7.6,3.6 -7.6,7.6 m -96.7,-27.6 c -4,0 -7.6,3.5 -7.6,7.4 0,3.9 0.8,4 2.2,5.4 1.4,1.4 3.4,2.2 5.4,2.2 2,0 3.9,-0.8 5.3,-2.2 1.4,-1.4 2.2,-3.3 2.2,-5.3 0,-2 -0.8,-3.9 -2.2,-5.3 -1.3,-1.3 -3.2,-2.2 -5.1,-2.2 -1.9,0 -0.1,0 -0.2,0 m 201.7,6.3 c 0,2 0.8,3.9 2.2,5.3 1.4,1.4 3.3,2.2 5.3,2.2 2,0 3.9,-0.8 5.3,-2.2 1.4,-1.4 2.2,-3.3 2.2,-5.3 0,-2 -0.7,-3.9 -2.2,-5.4 -1.4,-1.4 -3.4,-2.2 -5.4,-2.2 -3.9,0 -7.5,3.5 -7.5,7.6 M 467.1,427.5 c -4.6,0.6 -7.7,4.8 -7.1,9.3 0.6,4.5 4.8,7.7 9.3,7.1 1.9,-0.2 3.5,-1.1 4.8,-2.3 1.8,-1.8 2.7,-4.4 2.4,-7 -0.5,-4.2 -4.1,-7.2 -8.1,-7.2 -4,0 -0.8,0 -1.2,0 m 61.3,6 c -0.6,4.5 2.5,8.7 7.1,9.3 2.6,0.4 5.2,-0.5 7,-2.3 1.2,-1.2 2.1,-2.9 2.3,-4.7 0.6,-4.5 -2.6,-8.6 -7.1,-9.3 -0.4,0 -0.8,0 -1.2,0 -4,0 -7.6,3 -8.1,7.2 m -181,-15.2 c -5.2,2.7 -7.2,9.4 -4.4,14.6 2.8,5.3 9.4,7.3 14.7,4.4 0.9,-0.5 1.8,-1.2 2.5,-1.8 3.4,-3.4 4.2,-8.5 1.9,-12.8 -2,-3.7 -5.7,-5.7 -9.6,-5.7 -3.9,0 -3.5,0.4 -5.1,1.3 m 295.2,3.2 c -2.8,5.3 -0.8,11.9 4.4,14.7 4.3,2.3 9.4,1.5 12.8,-1.9 0.7,-0.7 1.4,-1.5 1.8,-2.5 2.9,-5.3 0.8,-11.8 -4.4,-14.7 -1.6,-0.9 -3.4,-1.3 -5.1,-1.3 -3.9,0 -7.6,2.1 -9.5,5.7 M 295.1,407.3 v 0 c -5.7,4.6 -6.8,12.9 -2.3,18.7 4.5,5.8 12.9,6.9 18.8,2.4 0.5,-0.3 0.8,-0.7 1.2,-1 4.7,-4.7 5.3,-12.3 1,-17.6 -2.6,-3.4 -6.6,-5.2 -10.6,-5.2 -4,0 -5.7,0.9 -8.1,2.7 m -42.2,-3.6 c -7.2,-0.1 -14.2,6.6 -14.1,14.1 0,3.6 1.5,7.2 4.1,9.8 2.7,2.7 6.4,4.2 10,4.1 3.7,0.1 7.3,-1.5 9.8,-4.1 2.7,-2.7 4.3,-6.3 4.2,-9.9 0.1,-3.7 -1.5,-7.2 -4.2,-9.9 -2.5,-2.5 -5.9,-4.1 -9.5,-4.1 -3.6,0 -0.2,0 -0.4,0 m 439.9,4.8 h -0.1 c -4.4,5.8 -3.4,14.2 2.5,18.8 5.4,4.3 12.9,3.7 17.6,-1 0.4,-0.4 0.8,-0.8 1,-1.2 4.5,-5.8 3.5,-14.2 -2.4,-18.7 -2.4,-1.9 -5.3,-2.8 -8.1,-2.8 -2.8,0 -7.9,1.8 -10.5,5 m 45.3,8.1 c -0.1,3.7 1.5,7.2 4.1,9.8 2.7,2.7 6.3,4.3 9.9,4.2 3.7,0.1 7.3,-1.5 9.9,-4.2 2.6,-2.6 4.2,-6.2 4.1,-9.8 0.1,-3.7 -1.4,-7.3 -4.1,-10 -2.6,-2.6 -6.2,-4.1 -9.8,-4.1 0,0 -0.1,0 -0.2,0 -7.4,0 -14,6.9 -13.9,14.1 M 427.8,401.3 c -5.3,1.5 -8.4,7 -6.8,12.3 1.5,5.2 7,8.3 12.2,6.9 1.7,-0.6 3.1,-1.4 4.3,-2.6 2.5,-2.5 3.6,-6.1 2.5,-9.7 -1.2,-4.4 -5.2,-7.2 -9.5,-7.2 -4.3,0 -1.8,0.1 -2.7,0.4 m 137.2,5.7 c -1.5,5.3 1.6,10.7 6.9,12.2 3.6,1 7.2,0 9.7,-2.5 1.2,-1.2 2,-2.6 2.6,-4.3 1.5,-5.3 -1.6,-10.8 -6.9,-12.2 -0.9,-0.3 -1.9,-0.4 -2.8,-0.4 -4.3,0 -8.3,2.8 -9.5,7.2 m -62.8,-9.8 c -4.4,0 -8.3,3.9 -8.3,8.3 0,2.2 0.8,4.4 2.4,6 1.5,1.5 3.7,2.4 5.9,2.4 2.2,0 4.4,-0.8 5.9,-2.4 1.6,-1.6 2.4,-3.7 2.4,-6 0,-2.3 -0.9,-4.3 -2.4,-5.8 -1.5,-1.5 -3.6,-2.5 -5.7,-2.5 -2.1,0 -0.1,0 -0.2,0 m -117,-15.7 c -5.4,2.4 -8,8.7 -5.7,14.2 2.5,5.5 8.9,8 14.3,5.6 1.3,-0.5 2.4,-1.3 3.4,-2.3 3,-3 4.1,-7.7 2.3,-12 -1.8,-4.1 -5.8,-6.5 -10,-6.5 -4.2,0 -2.9,0.3 -4.3,0.9 m 220.3,4.6 c -2.4,5.4 0,11.9 5.6,14.3 4.2,1.8 9,0.7 11.9,-2.3 1,-1 1.8,-2.1 2.3,-3.4 2.4,-5.4 0,-11.9 -5.6,-14.3 -1.4,-0.6 -2.8,-0.8 -4.2,-0.8 -4.2,0 -8.2,2.4 -10,6.5 m -141.2,-15 c -4.8,1.1 -7.8,5.9 -6.7,10.8 1.2,4.7 6,7.8 10.8,6.7 1.7,-0.4 3.2,-1.3 4.3,-2.3 2.1,-2.2 3.2,-5.3 2.5,-8.4 -1,-4.1 -4.7,-6.9 -8.8,-6.9 -4.1,0 -1.4,0 -2.1,0.2 m 65.6,5.3 c -1.2,4.8 1.8,9.7 6.6,10.8 3.1,0.7 6.3,-0.3 8.4,-2.5 1.1,-1.1 2,-2.6 2.4,-4.3 1.1,-4.8 -1.9,-9.6 -6.7,-10.8 -0.7,-0.2 -1.4,-0.2 -2,-0.2 -4.1,0 -7.8,2.8 -8.8,6.9 m -190.3,-9.5 c -6,3.8 -7.9,11.7 -4.2,17.8 3.8,6.2 11.8,8.1 17.9,4.3 0.9,-0.6 1.8,-1.2 2.4,-1.8 4.2,-4.2 5.1,-10.8 1.9,-16.1 -2.5,-4 -6.8,-6.2 -11.2,-6.2 -4.4,0 -4.7,0.6 -6.8,1.9 m 308,3.1 c -3.8,6.2 -1.8,14.1 4.2,18 5.2,3.2 11.9,2.3 16.1,-1.9 0.6,-0.6 1.3,-1.4 1.8,-2.4 3.8,-6.2 1.8,-14.2 -4.3,-17.9 -2.1,-1.3 -4.4,-1.9 -6.7,-1.9 -4.4,0 -8.7,2.2 -11.1,6.1 M 291.6,359.7 c -6,5 -6.9,13.8 -1.9,19.8 4.9,6 13.7,6.9 19.7,2 v 0 c 0.4,-0.3 0.7,-0.6 1,-0.9 5.1,-5.1 5.6,-13.3 1,-18.8 -2.8,-3.4 -6.9,-5.1 -10.9,-5.1 -4,0 -6.3,1 -8.9,3.1 m 400.7,0.6 c -4.8,6 -4,14.9 2,19.9 5.6,4.6 13.8,4 18.9,-1 0.3,-0.3 0.6,-0.6 1,-1 h -0.1 c 5,-6 4.1,-14.9 -2,-19.7 -2.6,-2.2 -5.8,-3.2 -8.9,-3.2 -3.1,0 -8.1,1.8 -10.9,5.1 m -453.5,8.8 c 0,4 1.7,8 4.6,11 2.9,2.9 7,4.5 11.1,4.4 4.1,0.1 8.2,-1.5 11,-4.4 3,-3 4.5,-6.9 4.5,-11.1 0,-4.2 -1.7,-8.1 -4.5,-10.9 -3,-3 -6.8,-4.6 -11,-4.6 h -0.2 c -8.2,0 -15.5,7.6 -15.5,15.7 m 496.1,-1.3 c 0,4.2 1.7,8 4.6,11 2.9,2.9 6.7,4.5 10.9,4.5 4.2,0 8.2,-1.5 11.1,-4.5 2.9,-2.9 4.5,-6.9 4.4,-11 0.1,-4.1 -1.5,-8.2 -4.4,-11 -3,-3 -7.1,-4.6 -11,-4.6 -8.2,0 -15.8,7.4 -15.7,15.7 M 424,347.1 c -5.5,2 -8.3,8.2 -6.3,13.7 1.9,5.4 8,8.3 13.5,6.3 v 0 c 1.5,-0.5 2.8,-1.4 3.8,-2.4 2.9,-2.8 3.9,-7.2 2.5,-11.1 -1.5,-4.3 -5.6,-7 -9.9,-7 -4.3,0 -2.4,0.2 -3.6,0.6 m 143.4,5.1 c -2,5.5 0.8,11.6 6.4,13.6 4,1.4 8.3,0.4 11.2,-2.5 1.1,-1.1 1.9,-2.3 2.5,-3.8 v 0 c 2,-5.6 -0.9,-11.6 -6.3,-13.6 -1.2,-0.5 -2.4,-0.7 -3.6,-0.7 -4.3,0 -8.4,2.7 -10,6.9 M 380.5,328.6 c -6.8,3.5 -9.5,11.7 -6.1,18.6 3.4,6.7 11.8,9.5 18.5,6.1 1.3,-0.8 2.5,-1.6 3.5,-2.5 4.1,-4.1 5.4,-10.6 2.5,-16 -2.3,-4.8 -7.2,-7.6 -12.3,-7.6 -5.1,0 -4.2,0.5 -6.1,1.5 m 225.5,5 c -3.4,6.7 -0.7,15.1 6.1,18.4 5.4,2.8 11.9,1.6 16,-2.5 1,-1 1.8,-2.1 2.5,-3.5 3.4,-6.7 0.7,-15.1 -6.1,-18.5 -2,-1 -4.2,-1.5 -6.2,-1.5 -5.1,0 -9.9,2.8 -12.4,7.6 M 335.2,316.3 c -7.4,4.9 -9.5,14.9 -4.6,22.3 5.1,7.4 15,9.4 22.5,4.4 0.9,-0.4 1.7,-1.2 2.4,-1.9 5.4,-5.3 6.5,-13.8 2.1,-20.3 -3.1,-4.7 -8.2,-7.2 -13.5,-7.2 -5.3,0 -6.1,0.9 -8.9,2.7 m 312.2,3.3 c -4.9,7.4 -2.8,17.4 4.6,22.3 6.5,4.4 14.9,3.3 20.3,-2.1 0.7,-0.7 1.5,-1.5 1.9,-2.4 4.9,-7.4 3,-17.3 -4.4,-22.4 -2.7,-1.8 -5.8,-2.7 -8.9,-2.7 -5.2,0 -10.4,2.5 -13.5,7.2 m -357.2,-9.4 c -6.8,5.7 -7.6,15.8 -1.9,22.7 5.8,6.7 15.9,7.5 22.8,1.8 l 0.9,-0.9 c 5.9,-5.9 6.4,-15.3 0.9,-21.9 -3.2,-3.7 -7.7,-5.6 -12.2,-5.6 -4.5,0 -7.4,1.3 -10.5,3.9 m 402,0 c -5.8,6.7 -5,16.9 1.7,22.7 6.6,5.5 15.9,5 21.9,-0.9 0.3,-0.3 0.6,-0.6 0.9,-0.9 5.7,-6.8 4.9,-17 -1.8,-22.8 -3.1,-2.5 -6.8,-3.8 -10.4,-3.8 -3.6,0 -9.1,1.9 -12.3,5.7 M 256.5,297.9 c -9.2,-0.1 -17.7,8.4 -17.7,17.7 -0.1,4.6 1.7,9.3 5.1,12.7 3.3,3.3 7.9,5.1 12.7,5.1 4.8,0 9.2,-1.9 12.4,-5.1 3.4,-3.4 5.3,-8 5.1,-12.7 0.1,-4.6 -1.9,-9.1 -5.1,-12.4 -3.3,-3.3 -7.6,-5.3 -12.1,-5.3 h -0.4 m 491.7,0 c -9.3,0 -17.8,8.5 -17.7,17.7 -0.1,4.6 1.9,9.1 5.3,12.5 3.3,3.2 7.8,5.2 12.4,5.1 4.6,0.1 9.3,-1.8 12.7,-5.1 3.3,-3.3 5.1,-7.9 5.1,-12.4 0,-4.5 -1.9,-9.4 -5.1,-12.7 -3.3,-3.3 -7.7,-5.1 -12.2,-5.1 h -0.5"
         id="path1" />
    </clipPath>
    <linearGradient
       id="linear-gradient"
       x1="-31.5"
       y1="1055.5"
       x2="-16.9"
       y2="1055.5"
       gradientTransform="matrix(36.4,0,0,-36.4,1380.3,38912.4)"
       gradientUnits="userSpaceOnUse">
      <stop
         offset="0"
         stop-color="#3b83b7"
         id="stop1" />
      <stop
         offset=".3"
         stop-color="#3f8fa5"
         id="stop2" />
      <stop
         offset="1"
         stop-color="#4baf78"
         id="stop3" />
      <stop
         offset="1"
         stop-color="#4cb176"
         id="stop4" />
    </linearGradient>
  </defs>
  <g
     class="st2"
     clip-path="url(#clippath)"
     id="g4"
     transform="matrix(0.56390479,0,0,0.56390479,-131.95372,-167.98674)">
    <rect
       class="st1"
       x="234"
       y="297.79999"
       width="532.09998"
       height="404.20001"
       id="rect4"
       style="fill:url(#linear-gradient)" />
  </g>
</svg>
