<?xml version="1.0" encoding="UTF-8"?>
<svg xmlns="http://www.w3.org/2000/svg" xmlns:xlink="http://www.w3.org/1999/xlink" viewBox="0 0 1000 1000">
  <defs>
    <style>
      .cls-1 {
        fill: url(#radial-gradient-30);
      }

      .cls-1, .cls-2, .cls-3, .cls-4, .cls-5, .cls-6, .cls-7, .cls-8, .cls-9, .cls-10, .cls-11, .cls-12, .cls-13, .cls-14, .cls-15, .cls-16, .cls-17, .cls-18, .cls-19, .cls-20, .cls-21, .cls-22, .cls-23, .cls-24, .cls-25, .cls-26, .cls-27, .cls-28, .cls-29, .cls-30, .cls-31, .cls-32, .cls-33, .cls-34, .cls-35, .cls-36, .cls-37, .cls-38, .cls-39, .cls-40, .cls-41, .cls-42, .cls-43, .cls-44 {
        stroke-width: 0px;
      }

      .cls-45 {
        clip-path: url(#clippath-20);
      }

      .cls-46 {
        clip-path: url(#clippath-11);
      }

      .cls-47 {
        clip-path: url(#clippath-16);
      }

      .cls-2 {
        fill: url(#radial-gradient-16);
      }

      .cls-3 {
        fill: url(#radial-gradient-40);
      }

      .cls-48 {
        clip-path: url(#clippath-33);
      }

      .cls-4 {
        fill: url(#radial-gradient-39);
      }

      .cls-49 {
        clip-path: url(#clippath-32);
      }

      .cls-5 {
        fill: #00456d;
      }

      .cls-6 {
        fill: url(#radial-gradient-8);
      }

      .cls-50 {
        clip-path: url(#clippath-2);
      }

      .cls-51 {
        clip-path: url(#clippath-13);
      }

      .cls-52 {
        isolation: isolate;
      }

      .cls-53 {
        clip-path: url(#clippath-37);
      }

      .cls-54 {
        clip-path: url(#clippath-25);
      }

      .cls-55 {
        clip-path: url(#clippath-15);
      }

      .cls-56 {
        clip-path: url(#clippath-6);
      }

      .cls-7 {
        fill: url(#radial-gradient-13);
      }

      .cls-8 {
        fill: url(#radial-gradient-12);
      }

      .cls-57 {
        clip-path: url(#clippath-40);
      }

      .cls-58 {
        clip-path: url(#clippath-26);
      }

      .cls-9 {
        fill: url(#radial-gradient-35);
      }

      .cls-10 {
        fill: none;
      }

      .cls-11 {
        fill: url(#radial-gradient-27);
      }

      .cls-12 {
        fill: url(#radial-gradient-29);
      }

      .cls-59 {
        clip-path: url(#clippath-7);
      }

      .cls-60 {
        clip-path: url(#clippath-21);
      }

      .cls-61 {
        clip-path: url(#clippath-34);
      }

      .cls-62 {
        clip-path: url(#clippath-1);
      }

      .cls-63 {
        clip-path: url(#clippath-4);
      }

      .cls-64 {
        clip-path: url(#clippath-38);
      }

      .cls-65 {
        clip-path: url(#clippath-36);
      }

      .cls-66 {
        clip-path: url(#clippath-27);
      }

      .cls-13 {
        fill: url(#radial-gradient-38);
      }

      .cls-14 {
        fill: url(#radial-gradient-22);
      }

      .cls-15 {
        fill: url(#radial-gradient-19);
      }

      .cls-16 {
        fill: url(#radial-gradient-20);
      }

      .cls-67 {
        clip-path: url(#clippath-12);
      }

      .cls-17 {
        fill: #fff;
      }

      .cls-18 {
        fill: url(#radial-gradient-25);
      }

      .cls-19 {
        fill: url(#radial-gradient-33);
      }

      .cls-68 {
        clip-path: url(#clippath-24);
      }

      .cls-20 {
        fill: url(#radial-gradient-17);
      }

      .cls-21 {
        fill: url(#radial-gradient-32);
      }

      .cls-22 {
        fill: url(#radial-gradient-21);
      }

      .cls-69 {
        clip-path: url(#clippath-30);
      }

      .cls-70 {
        clip-path: url(#clippath-22);
      }

      .cls-23 {
        fill: url(#radial-gradient-2);
      }

      .cls-24 {
        fill: url(#radial-gradient-41);
      }

      .cls-25 {
        fill: url(#radial-gradient-7);
      }

      .cls-71 {
        clip-path: url(#clippath-9);
      }

      .cls-26 {
        fill: url(#radial-gradient-34);
      }

      .cls-27 {
        fill: url(#radial-gradient-26);
      }

      .cls-72 {
        clip-path: url(#clippath);
      }

      .cls-28 {
        fill: url(#radial-gradient-5);
      }

      .cls-29 {
        fill: url(#radial-gradient-24);
      }

      .cls-30 {
        fill: url(#radial-gradient);
      }

      .cls-31 {
        fill: url(#radial-gradient-37);
      }

      .cls-73 {
        clip-path: url(#clippath-39);
      }

      .cls-74 {
        clip-path: url(#clippath-19);
      }

      .cls-75 {
        clip-path: url(#clippath-31);
      }

      .cls-32 {
        fill: url(#radial-gradient-31);
      }

      .cls-76 {
        clip-path: url(#clippath-3);
      }

      .cls-33 {
        fill: url(#radial-gradient-14);
      }

      .cls-34 {
        fill: url(#radial-gradient-18);
      }

      .cls-77 {
        clip-path: url(#clippath-8);
      }

      .cls-35 {
        fill: url(#radial-gradient-10);
      }

      .cls-78 {
        mix-blend-mode: screen;
        opacity: .2;
      }

      .cls-79 {
        clip-path: url(#clippath-29);
      }

      .cls-80 {
        clip-path: url(#clippath-18);
      }

      .cls-81 {
        clip-path: url(#clippath-14);
      }

      .cls-82 {
        clip-path: url(#clippath-17);
      }

      .cls-83 {
        clip-path: url(#clippath-5);
      }

      .cls-36 {
        fill: url(#radial-gradient-28);
      }

      .cls-37 {
        fill: url(#radial-gradient-6);
      }

      .cls-38 {
        fill: url(#radial-gradient-15);
      }

      .cls-39 {
        fill: url(#radial-gradient-9);
      }

      .cls-40 {
        fill: url(#radial-gradient-3);
      }

      .cls-84 {
        clip-path: url(#clippath-10);
      }

      .cls-85 {
        clip-path: url(#clippath-23);
      }

      .cls-41 {
        fill: url(#radial-gradient-11);
      }

      .cls-86 {
        clip-path: url(#clippath-28);
      }

      .cls-42 {
        fill: url(#radial-gradient-36);
      }

      .cls-43 {
        fill: url(#radial-gradient-4);
      }

      .cls-44 {
        fill: url(#radial-gradient-23);
      }

      .cls-87 {
        clip-path: url(#clippath-35);
      }
    </style>
    <clipPath id="clippath">
      <path class="cls-10" d="M514.5,221.48c-40.3,0-80.37,24.82-116.96,61.33-61.21,61.11-89.64,131.91-24.12,197.59,65.56,65.68,197.51,98.62,258.71,37.51,61.25-61.11,28.57-193.13-36.99-258.8-26.29-26.39-53.49-37.62-80.55-37.64h-.1Z"/>
    </clipPath>
    <radialGradient id="radial-gradient" cx="10363.09" cy="5669.18" fx="10363.09" fy="5669.18" r="20.15" gradientTransform="translate(176882.68 -145226.62) rotate(-179.94) scale(17.02 -25.7)" gradientUnits="userSpaceOnUse">
      <stop offset="0" stop-color="#009edc"/>
      <stop offset=".17" stop-color="#0a79bb"/>
      <stop offset=".38" stop-color="#155298"/>
      <stop offset=".49" stop-color="#1a438b"/>
      <stop offset=".57" stop-color="#21367b"/>
      <stop offset=".68" stop-color="#272c6f"/>
      <stop offset=".78" stop-color="#2a296b"/>
      <stop offset="1" stop-color="#2a296b"/>
    </radialGradient>
    <clipPath id="clippath-1">
      <path class="cls-10" d="M443.88,458.42c-1.13,1.07-3.16,3.43-4.8,4.23-2.05,1.01-4.55.5-4.23,3.79.14,1.05,1.33,2.78,1.43,3.53l-1.05,2.76-1.25,1.11c.12.95.3,1.91,1.21,2.62.16.36-.04.71.06,1.51.22,1.61,1.95,3.57,3.75,3.79.22.04.46.06.68.06,3.53,0,3.75-3.69,4.67-6.33,1.21-3.53,2.58-6.63,2.18-11.69l1.33.46-.1-1.07c-.85-1.89-.95-6.31-3.61-6.85l-.28,2.08ZM383.74,353.77l-.14.02-.38-.08-.34-.02c-.22,0-.46.06-.89.4l-.08.4.52.1c.67.08.93.89,1.65.91l.32.14.3-.46-.06-.81.32-.66.28-.68c-.6.02-.99.6-1.51.75M410.6,354.22l.3.28.38.26c.56-.04,1.81-.56,2.1-.91l.18-.64c.36-.2.66-.02.91-.64-1.15.34-2.84,1.11-3.87,1.65M378.77,350.59l.1.93-.42,1.11c-.08.34-.38,1.01-.08,1.01l.18-.06c.46-.18,1.05-1.03,1.25-1.77.22-.75.34-1.35.26-2.03l-.38-.12c-.54.2-.46.58-.91.95M379.99,347.33l-.26.2c.1.5-.5,1.71.14,1.71h.02c.14-.34.5-1.53.79-2.16v-.48l-.68.73ZM454.6,267l-.87.34-.99.66.24.2c.18,0,.48-.06.87-.12,1.21-.16,2.05-.54,2.94-.83l.04-.3-.54.04-.54-.04-.52-.02c-.2,0-.4.02-.62.06M446.84,339.37c-2.04-.62-4.71-3.47-4.59-5.28.02-.46-1.47-1.11-1.41-1.89l2.03-2.6,2.88-1.03c2.01-.71,3-1.37,5.6-1.55.46-.04.87-.08,1.25-.08,3,0,3.77,1.35,5.06,2.64-.6.32-1.23.38-1.87.38-.26,0-.54-.02-.83-.02s-.54-.02-.83-.02l-.6.02c-2.14.14-5.26,1.67-5.46,1.69,0,1.05,1.17.91,1.59,1.41,1.33,1.63,3.55,1.87,3.47,3.97.48-.2,2.14-.91,2.7-.97.08.81,1.31,1.55,1.31,2.4-.85.02-1.53.14-2.36.14-.58.06-1.39,1.23-1.63,2.03,1.65.1,2.46.66,2.4,1.71l-.14,1.31-.06,1.57-.06,1.27c-1.01.26-2.38.54-3.73.62-.48.08-1.19.16-1.85.16-.75,0-1.43-.1-1.73-.36-.38-.36-.58-1.11-1.25-1.21-.91-.1-1.75-.48-2.14-1.09-.4-.62.36-1.07-.24-1.69-.28-.36-.89-.26-.91-.85l1.05.04c.93-1.01,1.09-2.18,2.36-2.74M474.33,265.04c-2.14.26-7.37,2.16-10.62,2.16h-.26l1.73-.97h-.04c-1.55,0-5.12,1.19-8.7,2.54-1.37.5-2.32.48-3.55.87-1.81.77-.95,1.57-4.17,1.91h-.08c-.83,0-2.3-.16-1.97-.56l3.22-.87c.04-.44-1.01-.83-2.24-.83-1.01,0-2.16.24-2.94.89-.38.32,1.17.04-.54,1.55l.89.79c-.08.38,1.61,5.78,1.09,5.82-.34.08-.44,2.62-1.19,2.8-1.45.46-4.19,3.69-5.04,4.01-.91.28.4.85-.06,1.25-.54.34-2.9.52-6.27.75l.44.93c.46-.02.87-.04,1.33-.04l.66.02c-1.23.16-2.16.89-2.98.89l-.32-.02-.14-.02-.4.04h-.4l-.58-.16.12-.93c-.34-.54-.95-.85-1.35-1.07,2.5-.75,3.83-1.07,6.31-1.43,2.88-.36,8.84-3.3,3.95-3.3-.75,0-1.75.08-3.06.22-2.92.3-4.43.34-6.53.95-.24.02-1.25.08-2.74.54-.16.12-1.43.42-1.95.6l-.87.02c1.43-.66,1.85-.62,2.6-1.31-.58.1-1.57.3-1.91.38-.52.24-.81.4-1.05.62l-.38.14c-.14,0-.04-.16.02-.38-1.03.56-1.45.83-2.44,1.37l-.08-.26c-.73.4-1.19.79-1.77,1.13-8.95,7.13-22.73,29.64-29.58,38.66l.1.02-.18.32.04,1.31c.91-.48,1.53-1.85,2.3-2.22.42-.28.93-.34,1.49-.58.34-.6,1.29-1.09,1.75-1.91l-.46-.22c.22-.58.56-1.57,1.37-2.01.62-.22,1.97-1.49,2.18-1.83.16-.46.26-.95-.18-.95l-.28.04-.16-.32-.32-.42c.66-.52.52-.77,1.01-1.31.58-.69,1.25-1.17,2.16-1.71,1.05-.73,3.49-2.44,3.79-3.06l.26-.56c.36-.77,1.71-1.77,3.26-2.42.81-.34,1.71-.66,2.2-.66.26,0,.38.12.3.32-.28.54-2.64,2.22-3.47,2.72-1.35.93-1.45,1.51-3.38,2.38l-.68,1.41.24.56-.89.87c-.08.3.14.44.52.44.3,0,.73-.08,1.15-.26l.08.28c.1,0,.28-.08.62-.22.81-.32,1.35-.34,2.44-.85.93-.3,2.04-.87,2.8-1.63l.36.08c.3,0,.72-.08,1.13-.18.38-.08.79-.18,1.07-.18l.34.14c-.75.46-1.67,1.41-2.34,1.65-.93.24-2.6.38-3.73.75-1.23.36-4.59,2.8-4.01,3l.14.04c.3,0,.56-.14.87-.28.28-.14.58-.26.83-.26l.42.16-1.15,1.65-.5.08-.46-.12-.38-.1-.38.06c-.85.3-2.32,2.48-2.54,3.22-.48,1.17-1.85,1.35-2.34,2.44-.54.28-1.15.48-1.67.69l.3-.4c-.46.06-.85.26-1.47.48-.54.26-1.41.89-1.75,1.19-.79.44-.97.4-1.79.93l-.79.58-.5-.14.36-.46c-.81.32-1.87,1.37-2.8,1.89l-.24-.28c-4.31,6.12-8.08,12.61-11.24,19.36l.2-.02.16.04.14.04.4-.12c.75-.28,1.29-1.25,1.99-1.91.42-.38.52-.87,1.13-1.11.28-.14.52-.18.73-.18.75,0,1.03.75.79,1.97l.68.44c.46.46.62.75,1.51.77l.36-.04.71.22,1.63,1.89c-.08.42.32.44.2,1.17-.14.54-.44,1.31-.97,1.47l.4.18c.69-.14.79-1.15,1.31-1.71l.54-.75c.1-.68-.34-.18-.26-.83.12-.42.28-1.15.83-1.31l.24-.02c.26,0,.38.08.52.16l.5.18h.1c.36-1.03-.91-1.45-1.67-1.63-.38-.18-1.27,0-.97-.6l.14-.38c-.6.12-1.01.46-1.51.46l-.18-.02c-.54-.14-.42-1.07-.42-1.63-.02-.42-.2-.95-.75-.97-.79-.02-.73-.14-.56-.77l.38-.83-.14-.18c.04-.5.95-.77,1.49-1.25l.22.97c.6-.18.83-.32,1.23-.42-.16.85.54,2.18,1.39,2.18l.26-.04.62-.16c-.1.58.56.4,1.17.58.56.1,1.45.83,1.33,1.47l-.24,1.21c-.18.97-.42,1.13.06,1.57.44.38.62.6.81,1.27l.18.44.89-.18-.91,1.63c-.18.97.6,2.08,1.43,2.08h.1l.75-.14c-.64-.3.16-1.11.22-1.43l-.06-1.67.08-.38c.26.28.6,1.19,1.15,1.21l.1-.02,1.07-1.21-.12-.4c-.5,0-1.69-.85-1.65-.99l.28-.62-.79-.81.64-.66h.12l.4.22c.12.12.24.22.5.22l.22-.02.18-1.05c.73-.34.99-.77,1.89-.99l.4-.04c.24,0,.42.08.56.14l.56.12.26-.02c.81-.1,1.17-.06,1.91-.58.68-.2,1.59-.46,2.16-.73l.83-.28c-.34-.46-1.75-.81-1.59-1.73.14-.73,1.27-1.81,1.99-2.42l.2-1.23c.2-.28.14.06.5-.73.1-.46.69-.85,1.35-1.05l.08-.69c1.33-.58,1.89-2.36,3.22-2.64h.08c.22,0,.56.06.99.12.44.1.97.18,1.59.18.26,0,.52-.04.81-.06l-1.33,1.05c.89.75,1.57,1.41,2.1,1.41h.04c.87-.22,4.11-1.65,4.73-2.2l-1.79.08h-.14c-.34,0-.93-.02-.83-.52.2-.32,5-2.38,6.91-3.16l-1.31.99c.08.28,1.61,1.23-2.38,2.6,1.31,2.56,8.88,1.69,8.6,5.82l.3-.08c-1.21.56-2.26,1.35-3.61,1.57-1.35.18-2.64.24-3.95.42-.16.02-.38.04-.64.02-1.01,0-2.58-.08-2.62-.58l-.44.04c-.46,0-.71-.1-.97-.2-.26-.08-.56-.18-1.03-.18-.18,0-.4,0-.64.04-1.15.16-2.92.5-3.79,1.03-.77.4-1.93,1.21-2.7,1.35-.62.1-1.23.18-1.87.32l-1.47.5.38.48c-1.17.6-5.92.66-6.33,2.22l.93.04-.1.6c-.2.91-.77.95-1.37,1.53.71.2,1.27.64,1.67,1.33-.6.79.85,1.43,1.19,1.75l-.54.44.62-.08.58-.2c.36,0,.64.22.93.46.3.26.62.48,1.07.48h.16c1.03-.22,1.01-1.57,2.32-1.79l.2-.02c.6,0,1.13.34,1.65.66.52.32,1.07.64,1.65.64h.18c1.87-.26,2.3-1.11,3.45-2.03.22.18.52.38,1.01.38h.26c.52-.04.75-.5,1.35-.75l-.1.64-.54.75c-.04.79.14,1.67.06,2.84-.14,1.65-1.51,1.99-2.08,3.45-.52,1.41-.77,2.12-1.39,3.75l-.6.79.32,1.05-.2-.64c-.89.32-1.03.26-2.01.3l-.56.04c-.52,0-1.05-.08-1.55-.16-.46-.08-.93-.16-1.39-.16l-.4.04c-1.89.18-.97.75-2.94.95-.34.06-.71.08-1.05.08-1.89-.02-3.91-.58-5.4-1.09l-.5-.06-.68.06-.62.06c-.32,0-.62-.1-.77-.32-.18-.42-.71-.5-.64-1.39l-1.19.18-.12-.1c-1.65.93-2.9,1.07-3.18,3.12l-.16,1.27-1.11,1.11c-.26.06-.5.08-.73.08-1.47-.02-2.52-.71-3.53-1.39-.97-.73-1.87-1.43-2.98-1.43l-.52.08c-.58.06-.75.2-1.13.24l-.18.02c-.68,0-1.29-1.03-1.15-2.38.2-.85.64-1.47.87-2.36,0-.52-.38-.64-.26-1.15.1-.81.6-.81.87-1.69l-.64.52-.16.04-.28-.38-.34-.38-.14.02c-.79.3-.83,1.09-1.57,1.33l-.34.08-.22-.08-.22-.08-.16.02c-.87.42-.87,1.05-1.49,1.35l-.95-.14c-.85.36-1.53,1.31-2.52,2.22-4.45,12.87-6.87,26.64-6.87,40.92-.02,4.57.22,9.09.71,13.58l.36.14.2.02c.67,0,.24-.64.5-.89.93-.52,2.08-1.77,3.53-1.77l.26.02c1.23.16.42,3.81,1.39,4.01l.38.02c.26,0,.5-.02.77-.04s.52-.04.79-.04h.12c1.25.2,1.95,1.45,2.5,2.88-.26.54-.2,2.28-.12,3.06-.06.22-.16.32.06.93-.36.32-.71,1.59-.6,2.3.22,2.86,2.66,6.12,3.95,8.4.7,1.17.7,2.48,1.17,3.81.6,1.63,1.09,2.58,1.79,5.22.3,1.39.75,2.03,1.11,3.55.4,3.1-1.39,3.97-.54,7.92.85,3.69,2.5,6.06,4.33,9.03l.1.12c.14,0,.14-.75.1-1.49-.06-.75-.12-1.51-.08-1.51l.02.08.4,1.45c1.31,4.59,2.92,6.67,4.96,8.97.4.44,2.01,3.14,3.49,5.18.38.48.89.95.44,1.47.42.54.75,1.29,1.11,2.2l.36-.02c.5.6.99,1.15,1.75,1.51.38.12.68.18.93.18.3,0,.54-.08.79-.14.24-.08.52-.14.87-.14.28,0,.66.02,1.13.2.56.2,1.05.71,1.53.95.58.14.75.02,1.41.18-.04-.22.12-.3.32-.3.28,0,.68.12,1.07.24.42.12.85.22,1.11.22h.12c1.91-.38,2.14-1.61,3.16-2.92.62-.81,1.41-.62,2.46-1.47.52-.5,1.33-1.55,1.01-3.14-.12-.48-.56-.97-1.15-1.35.4-1.29-.64-1.31,1.53-1.71l.52-.04h.68c.48,0,.91-.02,1.19-.24.46-.56.24-2.88.04-4.11-.42-2.24-1.83-2.1-2.18-3.77-.16-.87.66-1.59,1.55-1.59h.04c.06-1.01.7-1.33,1.65-1.33.83,0,1.87.28,2.96.5,1.07.26,2.16.5,3.06.5,1.21,0,2.04-.46,1.93-2.08l-.71-1.39c-.14-1.47-.34-2.8-.46-4.33,0-.44.06-1.05.08-1.55l.4-.99c-.24-1.29-3.04-3.2-3.24-5.62-.22-2.08-1.51-4.01-1.75-6.21-.16-2.01,1.67-2.32,2.1-4.09.6-2.66,2.56-2.28,4.29-3.77.72-.64.64-3.32,1.41-3.89,1.89-1.27,3.83-2.34,5.92-3.91,2.78-2.08,3.65-4.01,6.02-7.01,1.95-2.62,5.58-8.86,5.68-13.34l-.54-1.17c-2.96.75-5.22,1.99-8.26,2.48h-.36c-.34,0-.66-.04-.97-.1-.3-.02-.6-.06-.91-.06-.28,0-.54.04-.89.12-1.09.32-1.05,1.25-2.3,1.27-1.31-.06-2.32-2.4-3.3-3.18.79-.89.02-1.05.02-2.36-2.5-.04-3.16-3.04-4.29-3.99-1.43-.99-2.1-1.05-3.28-2.22-1.27-1.33-.48-3.18-1.69-5-1.03-1.49-2.6-3.08-3.24-5.06-.02-1.31.08-2.54.14-3.83-1.09-.89-2.8-2.22-2.44-3.79-1.81-4.03-3.63-7.96-5.24-11.77l.1-1.17c.95,1.07,1.95,4.07,3.26,4.21.28-.71,1.09-2.5,1.49-3.55-.24.83-.52,1.73-.52,2.24l1.03,1.57c.67,1.17,1.33,1.79,2.1,3.02.2.38.64.97.87,1.67l.3,1.93,1.41.3.87.89c.28,1.37,1.25,1.63,1.25,3.36-.1,2.8.44,4.19,3,4.77-.1,1.75,1.47,4.05,2.38,4.96.83.81,2.46,1.63,2.1,3.32-.14.52-.75,2.12.06,2.18.08,1.45-.18,3.02.56,4.21.54.79-.04.77.12.85l2.38,1.05.46-.28c1.69,0,1.87-1.23,3.2-2.2,1.03.1,1.97.16,2.96.24,1.01-.44,4.09-2.72,5.08-2.98,1.99-.48,3.83-1.05,5.72-1.91l-.32-.71c.14-1.71,4.63-1.97,6.93-2.38l.06-.34c-.12-5.84-.08-11.71.1-17.57-1.17.99-2.66,1.71-5.32,1.79h-.2c-1.25,0-3.08-.48-3.1-1.51-.04-.93.58-1.49.62-2.4l-.04-.83c-.79.24-.66,1.13-1.67,1.39-.02-.52-.52-.87-.48-1.69-1.91-.36-3.95-3.43-4.33-5.16-.1-.44-.06-.93-.06-1.65.04-1.07.58-2.32,1.67-2.42h.18c2.16.02,3.67,2.1,4.51,3.67l.36,1.33c.89.81,2.12.3,3.1,1.15.85.75,1.41,1.63,2.72,1.99.79,0,1.51-.02,2.22-.04,1.57-34.86,8.54-69.63,19.24-103.12-.32.06-.56.08-.75.08-.52,0-.5-.24-.44-.44.02-.24.1-.48-.32-.48h-.08ZM471.63,263.55h.04-.04ZM471.67,263.55h0l.18.02-.18-.02ZM473.66,263.83c-.02.26.77.38,1.57.38.28,0,.6-.02.85-.06l.4-.06.14-.42c-.32-.1-.81-.14-1.33-.14-.79,0-1.55.12-1.63.3M471.61,263.55h.02l-.2-.06.18.06ZM471.38,263.49l-.22-.06.22.06ZM478.17,256.64c-2.6.3-4.57,1.33-6.33,1.59-1.07.08-1.75.34-2.76.46l-.75.28.42.3c-.22.5-3.69,1.33-3.81,1.65l.93.34c-1.15.28-3.18.58-3.4,1.01l-.06.32c-.14.54-2.08.58-2.22,1.15l1.11.26,2.01-.28h.1c1.01,0,.34.34.79.62l1.71-.22.46.12c1.77-.32,3.59-.4,5.46-.62l-.18-.08h-.06l-.22-.06c-1.51-.24-3.43-.12-3.32-.97.34-1.31,5.28-3.22,8.86-3.93.67-.1,1.09-.28,1.53-.44.18-.56.38-1.13.56-1.67-.22.06-.44.12-.85.16"/>
    </clipPath>
    <radialGradient id="radial-gradient-2" cx="8733.14" cy="5601.21" fx="8733.14" fy="5601.21" r="20.15" gradientTransform="translate(-56885.82 -89098.03) rotate(90) scale(10.24 -10.24)" gradientUnits="userSpaceOnUse">
      <stop offset="0" stop-color="#fff"/>
      <stop offset=".09" stop-color="#e7f3fa"/>
      <stop offset=".17" stop-color="#d5eaf7"/>
      <stop offset=".68" stop-color="#6bb7e6"/>
      <stop offset="1" stop-color="#6bb7e6"/>
    </radialGradient>
    <clipPath id="clippath-2">
      <path class="cls-10" d="M603.45,447.24c-.44.02-1.09-.02-1.19.54-.02.48.36.6.81.6l.66-.04.26.83.24-.04.52-.54c0-.87-.75-.46-.71-1.43l-.6.08Z"/>
    </clipPath>
    <radialGradient id="radial-gradient-3" cx="8963.09" cy="6088.3" fx="8963.09" fy="6088.3" r="20.15" gradientTransform="translate(-79532.44 -117931.95) rotate(90) scale(13.18 -13.18)" gradientUnits="userSpaceOnUse">
      <stop offset="0" stop-color="#b8def3"/>
      <stop offset=".17" stop-color="#96d2f0"/>
      <stop offset=".45" stop-color="#57bceb"/>
      <stop offset=".85" stop-color="#1887c5"/>
      <stop offset="1" stop-color="#0073b7"/>
    </radialGradient>
    <clipPath id="clippath-3">
      <polygon class="cls-10" points="597.04 445.99 597 446.69 597.45 447.1 598.15 446.35 597.65 445.93 597.04 445.99"/>
    </clipPath>
    <radialGradient id="radial-gradient-4" cx="8962.56" cy="6088.45" fx="8962.56" fy="6088.45" r="20.15" gradientTransform="translate(-79493.15 -117838.25) rotate(90) scale(13.17 -13.17)" xlink:href="#radial-gradient-3"/>
    <clipPath id="clippath-4">
      <path class="cls-10" d="M600.81,445.63l-.1.56c-.28-.06-.5-.16-.91-.16l-.26.02c-.54.16-1.07.04-1.13.83,0,.22.54.36,1.01.36l.2-.02c.62-.04.91-.52,1.53-.87l.48.2.54-.04c-.12-.16.04-.48.1-1.07-.48.12-.97.12-1.47.18"/>
    </clipPath>
    <radialGradient id="radial-gradient-5" cx="8964.02" cy="6088.07" fx="8964.02" fy="6088.07" r="20.15" gradientTransform="translate(-79627.1 -118078.41) rotate(90) scale(13.19 -13.19)" xlink:href="#radial-gradient-3"/>
    <clipPath id="clippath-5">
      <path class="cls-10" d="M607.22,445.26h-.22c-.34,0-.58-.06-.83-.1-.24-.08-.5-.1-.87-.1h-.36c-.44.04-1.07.08-1.13.62-.08.48.28.56.66.56l.56-.06c.68-.16,1.33-.18,2.1-.26.71-.4,1.31-.64,1.81-1.57-.54.36-.91.75-1.73.91"/>
    </clipPath>
    <radialGradient id="radial-gradient-6" cx="8963.83" cy="6088.11" fx="8963.83" fy="6088.11" r="20.15" gradientTransform="translate(-79601 -118058.9) rotate(90) scale(13.19 -13.19)" xlink:href="#radial-gradient-3"/>
    <clipPath id="clippath-6">
      <path class="cls-10" d="M611.83,445.16l-.32.66c-.81.46-1.93.58-2.12,2.1l.3.52c.68-.1,1.65-1.01,1.95-1.39l.3-.91c.83-.14,2.64-.93,3.3-2.01l-.38-.1c-.79,0-2.42.56-3.04,1.13"/>
    </clipPath>
    <radialGradient id="radial-gradient-7" cx="8963.74" cy="6088.13" fx="8963.74" fy="6088.13" r="20.15" gradientTransform="translate(-79588.73 -118047.8) rotate(90) scale(13.19 -13.19)" xlink:href="#radial-gradient-3"/>
    <clipPath id="clippath-7">
      <path class="cls-10" d="M632.24,445.73c-.3,1.63-.68,3.24-1.03,4.88-.46,1.31-1.35,4.41-2.46,4.9l-.14.02c-.46,0-.38-.85-.85-.95-.71-.22-1.25-.26-2.2-.48l-.14-1.01-.71-.3c.36-.95.71-1.93,1.07-2.96.38-.46.97-.58,1.11-1.37l-.58-.81c-.68.24-.71.58-1.23.75-.36.08-.66.14-.95.14-.97,0-1.59-.44-2.7-.83-.06.64.46.71.58,1.17l-.87.6c-.79.2-2.62,1.09-2.86,1.93-.18.81-.85,1.37-1.07,2.22-.04.5-.04.89-.4,1.45l-.62-.26c-.54.22-.89.4-1.23.89.06-1.03-.12-1.93-.89-1.93l-.22.02c-1.03.18-1.47,1.43-2.94,1.73-.36,1.37-1.37,1.83-1.71,3.51l-1.05-.26c-.38.66-.24,1.53-.93,2.08l-.62-1.03c-.62.32-.89,1.03-.97,1.63l-.18.99c-.4,2.03-5.22,4.53-7.47,5.3-1.09.38-3.34.85-4.19,1.69-.77.83-2.44,2.48-3.67,2.8l.02-.58-.81.83c-.18,1.17-.38,2.24-.58,3.36-.26,1.45.36,2.01.18,2.8l-.14.73-.4-.6-.5.79c-.44.95.68.95.83,1.71.44,2.1.36,2.68.52,4.82.12.89.72,1.45.38,2.94-.36,1.17-1.73,1.79-1.93,2.56-.1.54,1.33.83,2.44.83.3,0,.58,0,.81-.08,2.58-.69,3.77-2.4,5.66-3,.58-.14.73-.46,1.21-.46l.26.04c1.07-.4,2.12-.87,3.2-1.31,1.25-2.58,3.97-2.74,6.67-4.33,1.13-.79,1.67-1.55,3.28-2.2.99-.44,2.3-.79,3.16-.79.38,0,.71.06.83.26.08.64-.02,1.65.18,1.91,7.49-9.23,13.74-19.4,18.48-30.3l.04-.54c.1-.73.44-2.34.24-2.66-.26-.1-.18-.14-.83-.16-.56-.6.2-1.25.16-2.01.16-.97-.1-1.71.04-3.22-.64.73-.62,1.31-1.29,2.2"/>
    </clipPath>
    <radialGradient id="radial-gradient-8" cx="8963.72" cy="6088.14" fx="8963.72" fy="6088.14" r="20.15" gradientTransform="translate(-79567.96 -118027.85) rotate(90) scale(13.19 -13.19)" xlink:href="#radial-gradient-3"/>
    <clipPath id="clippath-8">
      <path class="cls-10" d="M579.13,442.85l-.56-.26-1.91,1.67c1.17.04,1.55.79,2.28,1.47.24.24.5.3.81.3.22,0,.5-.06.77-.1.28-.06.56-.12.87-.12l.38.04c.89.24,1.63.32,2.36.32.5,0,.99-.02,1.49-.1.72,0,.83.81,1.57.81h.08c1.15-.1,2.18-.18,3.16-.18,1.37,0,2.62.16,3.83.56l.06-.73h.18c.34,0,.48.1.58.16.14.12.24.18.52.18h.04l.79-.83c-.44-.22-.36-.32-.97-.54h-.18l-.5.1-.5.1-.36-.16-.46-.6c-.28.04-.5.04-.77.04-.81,0-1.45-.12-1.95-.71l-10.42-1.93-1.17.5Z"/>
    </clipPath>
    <radialGradient id="radial-gradient-9" cx="8963.31" cy="6088.23" fx="8963.31" fy="6088.23" r="20.15" gradientTransform="translate(-79568.52 -117956.18) rotate(90) scale(13.18 -13.18)" xlink:href="#radial-gradient-3"/>
    <clipPath id="clippath-9">
      <path class="cls-10" d="M614.92,433.76l.83,1.19.6-.95c.04-.4-.44-.73-.87-.73-.28,0-.52.16-.56.48"/>
    </clipPath>
    <radialGradient id="radial-gradient-10" cx="8962.62" cy="6088.44" fx="8962.62" fy="6088.44" r="20.15" gradientTransform="translate(-79487.98 -117879.71) rotate(90) scale(13.17 -13.17)" xlink:href="#radial-gradient-3"/>
    <clipPath id="clippath-10">
      <path class="cls-10" d="M618,432.79l-.4.64.87.16,1.13-.14.16-.02c.28,0,.46.1.66.22.2.14.4.22.66.22h.12l.3-.18c.12-.42-.46-.58-.44-1.11l-.16.1-.71-.18c-.66.06-1.39.18-2.2.28"/>
    </clipPath>
    <radialGradient id="radial-gradient-11" cx="8964.01" cy="6088.07" fx="8964.01" fy="6088.07" r="20.15" gradientTransform="translate(-79623.71 -118106.4) rotate(90) scale(13.19 -13.19)" xlink:href="#radial-gradient-3"/>
    <clipPath id="clippath-11">
      <path class="cls-10" d="M624.65,427.29c-.79.08-1.21,1.23-1.79,1.29l-.71.71c-.06.95,1.07.38,1.29,1.27l.22.54.6.12c.68-.06.75-.22,1.33-.46h.3c-.48.73-1.71.83-2.38,1.39l.73.69c.18.48-.08.77.06,1.37l.42.12.73-.69.24-.08c.26,0,.4.28.52.58.16.28.32.58.6.58h.06l.54-.04c.58,0,1.29.08,1.57.24.54.44,1.27.71,1.39,1.41,0,.87-.32,1.79.12,2.52-.3.26-.99.71-1.13,1.43l.54.32.75-.18.58-.52.16-.02c.42,0,.6.34.77.69.18.32.32.66.64.66l.16-.04c.75-.22.79-.22,1.23-.4.12-.36.36-.64.4-1.43.44-.5.62-1.57,1.37-1.81l.28-.06c.81,0,.99,1.31,1.21,2.08l.18.34c-.02.64-.24.99.4.99h.1c.18-.62.4-1.27.61-1.91l-.18-.38c-.1-.58.06-.99-.08-1.47l-.24-1.17c.04-.52.46-.52.62-1.11.12-.52.12-.66.02-.66l-.16.06-.26.08-.26-.1c-.54-.5-.24-2.01-1.11-2.4l-.3-.5-.14.02-.28-.32-.24-.32-.16.04-.28.02c-.68,0-1.41-.34-1.79-.81v-.06l-.06-.02-.08-.12.04.12-.52-.4c-.52.18-.4.12-.97.18l-.85-1.01-.42-.24c-.54.24-1.09,1.43-1.45,1.67-.56.36-.66.48-1.07.99l-.85,1.19-.68-1.13-.2.02c-.36,0-.38-.24-.38-.52.12-.77.24-1.51.22-2.32-.62-.1-1.11-1.01-1.91-1.01h-.08Z"/>
    </clipPath>
    <radialGradient id="radial-gradient-12" cx="8963.73" cy="6088.14" fx="8963.73" fy="6088.14" r="20.15" gradientTransform="translate(-79586.4 -118072.55) rotate(90) scale(13.19 -13.19)" xlink:href="#radial-gradient-3"/>
    <clipPath id="clippath-12">
      <path class="cls-10" d="M613.93,424.19c-.71.56-1.49,1.29-1.85,1.73l-.42.04c-1.33-.16-2.58-.38-3.93-.56-1.49.16-2.38,2.52-2.5,4.25l-.6,1.11c-.54,1.63-1.15,2.3-1.35,3.91-.1.81.73.79,1.11.81-.1,1.09-.16,2.22-.3,3.38l.87.79c.73-.12,1.09-2.58,1.13-2.88.06-.95-.4-1.31-.32-2.26l.95-.93.44-.04c-.14.42-.2.97-.34,1.49-.02.93.81,1.15.72,2.08l-.06.62.75-.1c.08-.71,1.27-.81,1.37-1.57l-.67-1.15.24-.46-1.15-2.8c1.69-.18,1.79-1.63,3.12-2.3l.04-.56-3.51,1.55.16-.28-.71.79h-.04c-.75,0-1.05-1.29-1.01-2.34.14-1.43,1.01-1.21,1.97-1.27,1.01-.12,1.41-.36,2.22-.46h.06c.34,0,.62.08.91.18.26.08.56.16.91.16h.04c1.07-.1,1.53-1.31,1.77-2.38l.3-.58h-.02l-.3.04Z"/>
    </clipPath>
    <radialGradient id="radial-gradient-13" cx="8963.82" cy="6088.12" fx="8963.82" fy="6088.12" r="20.15" gradientTransform="translate(-79612.58 -118068.58) rotate(90) scale(13.19 -13.19)" xlink:href="#radial-gradient-3"/>
    <clipPath id="clippath-13">
      <path class="cls-10" d="M617.7,424.03l.32,2.42,1.19-.24-.32-.99.56-.95c-.75-.14-1.15-.66-1.21-1.67-.36.4-.48.89-.54,1.43"/>
    </clipPath>
    <radialGradient id="radial-gradient-14" cx="8897.07" cy="6101.66" fx="8897.07" fy="6101.66" r="20.15" gradientTransform="translate(-73741.55 -108299.93) rotate(90) scale(12.19 -12.19)" xlink:href="#radial-gradient-3"/>
    <clipPath id="clippath-14">
      <path class="cls-10" d="M617.98,425.9c.02-.4-.06-.64-.14-.95l.14.95ZM617.7,424.07c.02.38.08.66.14.89l-.14-.91v.02Z"/>
    </clipPath>
    <radialGradient id="radial-gradient-15" cx="6272.84" cy="6756.55" fx="6272.84" fy="6756.55" r="20.15" gradientTransform="translate(-19879.93 -18696.35) rotate(90.01) scale(3.04 -3.04)" xlink:href="#radial-gradient-3"/>
    <clipPath id="clippath-15">
      <path class="cls-10" d="M555.08,418.02h0v.62c.18.77,1.51,2.98,2.12,3.14.75.16,1.51,0,1.83.66.44.85.77,1.57,1.15,2.36.54,1.07,2.32.73,2.86,2.52l1.03,2.7,1.23.38.22.69,1.25,1.87c.79,1.83,1.37,3.1,2.8,4.55,1.35,1.31,2.6,1.87,3.99,3.2l1.65,1.93c.44-.04,1.93-.36,2.06-1.19.04-.77-.22-1.69.5-2.1.16-1.03.12-2.16.18-3.24.06-.73-.93-.91-1.39-1.37-.75-.77-1.67-1.17-1.59-2.8h-.3c-.68,0-1.11-.28-1.09-1.19l.36-.77-.68-.66-.58.02.18-.4c-.02-1.17-1.27-1.49-2.38-1.85-2.16-.62-2.92-1.57-4.43-3.06-.66-.73-1.21-1.65-2.44-2.06l-.89-.38c-.62-1.27-1.09-2.44-2.88-2.96-.42,0-.87.02-1.31.02-.44.02-.91.02-1.35.02-.5-.24-.75-.66-1.63-.69l-.46.02Z"/>
    </clipPath>
    <radialGradient id="radial-gradient-16" cx="8963.76" cy="6088.13" fx="8963.76" fy="6088.13" r="20.15" gradientTransform="translate(-79640.2 -118018.32) rotate(90) scale(13.19 -13.19)" xlink:href="#radial-gradient-3"/>
    <clipPath id="clippath-16">
      <path class="cls-10" d="M601.07,413.17c-1.13.08-2.52,2.88-3.1,4.15-.32.42-1.75.28-2.44.95l-.4.64-.71.54-.52.93c-.58.62-.56,1.35-1.61,1.63-.79.16-1.47.18-1.95.75-.97,1.17-.85,3.36-3,3.53h-.2l-.56-.02-.6-.04c-.58,0-1.11.16-1.15.93l.93,3.12.89.4-.08.38c.77,1.45-.42,3.95,1.95,3.95h.18c.5,0,.95-.46,1.45-.46l.08,1.09.5.34c.95-.02,1.21-.87,1.75-.91h.12c1.15,0,1.71.71,2.74.95-.06.34.06.93.71.93h.08c.83-.08,1.01-.93,2.1-1.31.04-.89.87-1.93.95-2.52.02-.3-.24-.46-.24-.99.04-.38.73-1.57,1.51-1.77.12-1.25.68-1.69,1.01-3.34l.38-.77.6-.18h.1l.28.02.3.02c.34,0,.58-.12.77-.85-1.15-.02-2.64-3.49-2.62-4.61l.46-.54-.22-.64,1.87-1.11-.24-.36c.12-.52,1.41-.28,1.43-.93.1-1.51-2.58-.46-2.58-2.06-.02-1.11.16-1.83-.85-1.85l-.06.02Z"/>
    </clipPath>
    <radialGradient id="radial-gradient-17" cx="8963.72" cy="6088.14" fx="8963.72" fy="6088.14" r="20.15" gradientTransform="translate(-79620.35 -118043.69) rotate(90) scale(13.19 -13.19)" xlink:href="#radial-gradient-3"/>
    <clipPath id="clippath-17">
      <path class="cls-10" d="M517.18,415.14c0,1.23,1.03,2.46,2.4,2.48,1.85-.06,3.04-2.03,3.1-3.65-.06-2.9-2.7-3.89-4.13-6.04-.02,2.7-1.31,4.59-1.37,7.21"/>
    </clipPath>
    <radialGradient id="radial-gradient-18" cx="8963.73" cy="6088.14" fx="8963.73" fy="6088.14" r="20.15" gradientTransform="translate(-79688.96 -117980.71) rotate(90) scale(13.19 -13.19)" xlink:href="#radial-gradient-3"/>
    <clipPath id="clippath-18">
      <path class="cls-10" d="M615.48,408.74c-.2.32-1.15.1-1.31,1.03l-.64.85h-.38c-.4,0-.18-1.01-.93-1.03-1.11,0-.97,1.39-2.22,1.45-.28.66-.52,1.05-.6,1.73l.14.62-.18,1.53c.68-.06.87-2.16,1.55-2.84l.54.56.2-.3.56.3.06-.58h.83l.16.64-.4.79c-.14,1.23.42,2.22,1.23,2.24l.62-.08.2.5c.46-.02.67-.4.75-.93.08-.73-.56-.87-.5-1.33l.64-.93.26.52-.04-.14.54,1.45c.16-1.15.87-1.45.95-2.18.04-.5-.44-4.33-.81-4.88l-.87-.56c-.1.14-.12,1.03-.36,1.55"/>
    </clipPath>
    <radialGradient id="radial-gradient-19" cx="8963.65" cy="6088.17" fx="8963.65" fy="6088.17" r="20.15" gradientTransform="translate(-79611.05 -118059.62) rotate(90) scale(13.19 -13.19)" xlink:href="#radial-gradient-3"/>
    <clipPath id="clippath-19">
      <path class="cls-10" d="M613.61,406.84l-.64.99.32.32h.04c.58,0,.95-.62,1.07-1.31h-.79Z"/>
    </clipPath>
    <radialGradient id="radial-gradient-20" cx="8964.7" cy="6087.89" fx="8964.7" fy="6087.89" r="20.15" gradientTransform="translate(-79717.31 -118232.4) rotate(90) scale(13.21 -13.21)" xlink:href="#radial-gradient-3"/>
    <clipPath id="clippath-20">
      <path class="cls-10" d="M613.26,405.21c-.14,1.19-.5,1.71-.83,2.48h.3c.08-.95.87-1.25,1.05-2.48h-.52Z"/>
    </clipPath>
    <radialGradient id="radial-gradient-21" cx="8964.02" cy="6088.06" fx="8964.02" fy="6088.06" r="20.15" gradientTransform="translate(-79648.01 -118126.31) rotate(90) scale(13.19 -13.19)" xlink:href="#radial-gradient-3"/>
    <clipPath id="clippath-21">
      <path class="cls-10" d="M612.14,405.15l-.85,1.89-.56.38,1.13,1.69.4-.32c.02-.34-.22-.24-.2-.85.16-.75.87-1.31.91-2.1.06-.26-.08-.75-.58-.75l-.24.04Z"/>
    </clipPath>
    <radialGradient id="radial-gradient-22" cx="8963.59" cy="6088.18" fx="8963.59" fy="6088.18" r="20.15" gradientTransform="translate(-79612.5 -118051.91) rotate(90) scale(13.19 -13.19)" xlink:href="#radial-gradient-3"/>
    <clipPath id="clippath-22">
      <path class="cls-10" d="M605.1,405.79c-1.01,1.41-3.14,2.28-4.15,4.27h.46c.87-.54,2.26-1.37,2.68-2.92h.14c.44,0,.87-.18,1.07-.73l.66-.4c-.14-.26-.48-.38-.46-1.07l-.4.85Z"/>
    </clipPath>
    <radialGradient id="radial-gradient-23" cx="8963.42" cy="6088.22" fx="8963.42" fy="6088.22" r="20.15" gradientTransform="translate(-79603.87 -118014.69) rotate(90) scale(13.18 -13.18)" xlink:href="#radial-gradient-3"/>
    <clipPath id="clippath-23">
      <path class="cls-10" d="M609.82,403.34c0,.48.02,1.79-.08,2.96h.02c.58-.38,2.01-.97,2.16-2.08l-1.43-.99-.24-.22-.42.32Z"/>
    </clipPath>
    <radialGradient id="radial-gradient-24" cx="8963.68" cy="6088.15" fx="8963.68" fy="6088.15" r="20.15" gradientTransform="translate(-79628.69 -118064.68) rotate(90) scale(13.19 -13.19)" xlink:href="#radial-gradient-3"/>
    <clipPath id="clippath-24">
      <path class="cls-10" d="M613.91,401.91c.08.42,1.25.99,1.21,1.89l-.32.38-.79-.02-.02.4.77.85-.02.4.18.91h.52l.04-.4c-.2-.16-.32-.77-.38-1.29l.87.02.3-.85-.36-.58.08-1.03h-.34l.06-.66c-.52,0-.71-.24-1.25-.28l-.54.26Z"/>
    </clipPath>
    <radialGradient id="radial-gradient-25" cx="8963.54" cy="6088.19" fx="8963.54" fy="6088.19" r="20.15" gradientTransform="translate(-79607.67 -118050.19) rotate(90) scale(13.19 -13.19)" xlink:href="#radial-gradient-3"/>
    <clipPath id="clippath-25">
      <path class="cls-10" d="M612.03,402.59h.85l.58.66c.02-.83-.58-1.03-.77-1.63l-.56-.02-.1.99Z"/>
    </clipPath>
    <radialGradient id="radial-gradient-26" cx="8963.5" cy="6088.2" fx="8963.5" fy="6088.2" r="20.15" gradientTransform="translate(-79612.9 -118037.7) rotate(90) scale(13.19 -13.19)" xlink:href="#radial-gradient-3"/>
    <clipPath id="clippath-26">
      <path class="cls-10" d="M607.12,399.51l1.59,2.56c.26,0,.62-.79.58-1.31-.2-.83-.85-.71-1.51-1.23l-.66-.02Z"/>
    </clipPath>
    <radialGradient id="radial-gradient-27" cx="8963.68" cy="6088.15" fx="8963.68" fy="6088.15" r="20.15" gradientTransform="translate(-79628.44 -118068.62) rotate(90) scale(13.19 -13.19)" xlink:href="#radial-gradient-3"/>
    <clipPath id="clippath-27">
      <path class="cls-10" d="M607.56,388.29c-.44,0-.6.62-.62,1.27-.1.81.18,1.31.14,2.12l-.54,1.97-.1-.02c-.48,0-.38,1.29-.5,2.32l1.31,1.25.48-.44h.36l-.04.66-.46.73.85.95,1.05-.38c.87,0,.77,1.45,1.65,1.51l.08-1.25c.18.58,1.63,1.23,1.95,2.01l.26.52.26-.38.06-.5c-.48-.02-.77-.26-.73-.83l-.4-.02.44-.75-.34-.16-.58.44c-.4,0-.46-1.51-1.15-1.55l-.72.52-.02.32c-.64-.32-1.35-1.99-1.29-3.02.12-1.33,1.25-1.47,1.37-2.9.08-1.15-.66-2.08-.56-2.98l-.1-.46-.1-.32-.85.62c-.6-.1-.34-1.19-1.05-1.25h-.1Z"/>
    </clipPath>
    <radialGradient id="radial-gradient-28" cx="8963.78" cy="6088.13" fx="8963.78" fy="6088.13" r="20.15" gradientTransform="translate(-79643.95 -118089.69) rotate(90) scale(13.19 -13.19)" xlink:href="#radial-gradient-3"/>
    <clipPath id="clippath-28">
      <path class="cls-10" d="M584.61,386.61l.02.99c0,.91.52,1.37,1.47,1.41.95,0,2.8-1.97,2.82-2.94l-.79-1.03c-.95.04-3.04,1.57-3.53,1.57"/>
    </clipPath>
    <radialGradient id="radial-gradient-29" cx="8963.57" cy="6088.18" fx="8963.57" fy="6088.18" r="20.15" gradientTransform="translate(-79649.38 -118037.72) rotate(90) scale(13.19 -13.19)" xlink:href="#radial-gradient-3"/>
    <clipPath id="clippath-29">
      <path class="cls-10" d="M607.6,375.37c-.87,0-2.09,2.6-2.09,4.11.08,1.05-.1,1.95,1.13,2.08,1.53,0,2.66-5.92,1.01-6.19h-.04Z"/>
    </clipPath>
    <radialGradient id="radial-gradient-30" cx="8963.81" cy="6088.12" fx="8963.81" fy="6088.12" r="20.15" gradientTransform="translate(-79664.83 -118103.68) rotate(90) scale(13.19 -13.19)" xlink:href="#radial-gradient-3"/>
    <clipPath id="clippath-30">
      <path class="cls-10" d="M456.5,373.38c-.18,5.86-.22,11.73-.1,17.57.32-.87,1.63-1.89,2.32-1.91,1.27-.04,1.19-2.2,2.46-2.3,1.09,0,.93-1.31,1.31-2.22.3-.97,1.23-1.27,2.48-1.29.16-1.87,3.45-2.7,3.63-4.49-.08-.52-1.15-.48-1.63-1.21v.08c-.46-.24-.64-1.57-1.61-1.81-2.44-.68-3.99-.97-5.16-3.18,0-.99.04-1.85.06-2.8-1.57,1.13-2.46,2.5-3.75,3.57"/>
    </clipPath>
    <radialGradient id="radial-gradient-31" cx="8963.73" cy="6088.14" fx="8963.73" fy="6088.14" r="20.15" gradientTransform="translate(-79760.36 -117949.79) rotate(90) scale(13.19 -13.19)" xlink:href="#radial-gradient-3"/>
    <clipPath id="clippath-31">
      <path class="cls-10" d="M619.05,361.29l.58.73.54-.16-.06-.5.48.81-.08.77-.38.83.79,1.01.16.2h.04c.68,0,.79-1.59.81-2.58l.44.1-.08-.54-.48-.54-.14-.56c-.62-.1-.87-.62-1.29-.69l-1.33,1.15Z"/>
    </clipPath>
    <radialGradient id="radial-gradient-32" cx="8964.56" cy="6087.93" fx="8964.56" fy="6087.93" r="20.15" gradientTransform="translate(-79745.99 -118245.48) rotate(90) scale(13.2 -13.2)" xlink:href="#radial-gradient-3"/>
    <clipPath id="clippath-32">
      <path class="cls-10" d="M624.24,360.2l-.44.2-.38-.08-.79.62.44.71.4.89.12.02c.58,0,.5-.77.77-1.21l.71.54h.04c.6,0,.64-1.65-.3-1.91l-.12-.02-.44.24Z"/>
    </clipPath>
    <radialGradient id="radial-gradient-33" cx="8963.31" cy="6088.25" fx="8963.31" fy="6088.25" r="20.15" gradientTransform="translate(-79621.15 -118052.6) rotate(90) scale(13.18 -13.18)" xlink:href="#radial-gradient-3"/>
    <clipPath id="clippath-33">
      <path class="cls-10" d="M630.39,350.89l.1.06-.32.26-.14-.56-.22-.04c-.52,0-.26,1.07-.18,1.59l.28.64c.36,1.59-.52,3.3-1.19,3.45-.66.1-.5.48-.79.48l-.24-.06-.24-.32.1-.52-.44,1.13-.06-.02c-.22,0-.3.34-.38.68-.12.32-.2.62-.5.62h-.08c-.79-.22-1.73-.44-2.68-.6l-.32-.04c-.93,0-1.19,1.11-1.95,1.63l-.56.26.71.34.64.04c.64,0,1.19-.16,1.65-.32l.24-.08.22.1.28.06.22-.02.36-.34c.73.1.79.5,1.33.77l.02.91.08.42.66.68c.22-.52.32-1.19.75-1.19h.04l.38.06-.54-.95.18-.36c.54.12.48.91,1.29,1.17l.68-.42.36.12.22.32c.04-.77.36-.66.77-.99l.12.83c.79-.08-.04-.4.68-.79l-.34-1.01c-.16-.69.2-.87.1-1.31-.12-.6-.85-2.08-.22-2.18h.3l-.06-.32c-.08-.71.26-.58.12-1.37-.18-.66-.69-1.19-.85-1.87l-.28-1.03-.48-.38.18.46Z"/>
    </clipPath>
    <radialGradient id="radial-gradient-34" cx="8963.54" cy="6088.19" fx="8963.54" fy="6088.19" r="20.15" gradientTransform="translate(-79646.15 -118095.04) rotate(90) scale(13.19 -13.19)" xlink:href="#radial-gradient-3"/>
    <clipPath id="clippath-34">
      <path class="cls-10" d="M629.24,344.48l.3.54c.18.54.42,2.12-.04,2.12h-.08l-.34-.16-.2-.2.08.36c-.06.38-.42.44-.34.95l.3.58.26,1.11.22.08.26-.26.1.02.12.04.16-.18c-.22-.24-.62-.44-.81-.95-.06-.3,0-.38.08-.38.22,0,.58.32.85.46l.14-.28c.68.85.99,1.01,1.65,1.71.18-.64.08-1.23.38-1.23l.26.08.16.1c-.26-.58-.52-1.17-.81-1.75-.99-.75-1.67-2.1-2.68-3.26l-.04.5Z"/>
    </clipPath>
    <radialGradient id="radial-gradient-35" cx="8964.33" cy="6087.98" fx="8964.33" fy="6087.98" r="20.15" gradientTransform="translate(-79729.03 -118231.85) rotate(90) scale(13.2 -13.2)" xlink:href="#radial-gradient-3"/>
    <clipPath id="clippath-35">
      <path class="cls-10" d="M476.48,264.08h.02l.54-.1s-.16-.24-.42-.3l-.14.4Z"/>
    </clipPath>
    <radialGradient id="radial-gradient-36" cx="8970" cy="6086.57" fx="8970" fy="6086.57" r="20.15" gradientTransform="translate(-80464.04 -119042.31) rotate(90) scale(13.29 -13.29)" xlink:href="#radial-gradient-3"/>
    <clipPath id="clippath-36">
      <path class="cls-10" d="M539.18,257.31c-2.18,0-4.29.1-5.94.42-.52.18-.02.99-.34,1.25l-.54.12c-.56,0-1.39-.24-2.04-.3-1.35-.12-5.6-.5-8.62-.5-.97,0-1.79.04-2.38.14-.77.2.52.6.54,1.11l5.24,1.31-4.98-.56-.28.02c-.91,0-2.05-.68-3.97-.83-1.51,0-3.59.6-5.74.6l2.18.58,2.7.71-.26.02c-1.31,0-5.58-.52-5.78-.52-1.07-.22.44-1.45-.28-1.79-.32.83-2.16,1.23-4.13,1.57.58.68,2.8,1.13.48,2.03-.14.08.22.99,1.07,1.13.73-.02,2.22-.26,3.55-.26.48,0,.97.02,1.37.12.08,0,2.4.52,3.14.97.85.34-.1.6-.44.6h-.02c-.28-.02-1.25-1.09-2.08-1.13-1.33-.06-3-.12-3.89-.12-.4,0-.66,0-.68.06,0,.79.89,1.87-.6,1.91-.08,0-.77.42-1.47.81-1.11.46-3.06.85-3.81,1.01h-.1c-.75,0,.28-1.07.16-1.15l2.68-1.27.75-.87-1.81-.77c-.16-.71.34-1.47.16-2.06-.24-.73-1.25-.73-1.27-1.07.06-.91,5.32-1.31-1.15-1.59-.16-.02-.42-.02-.73-.02s-.64,0-1.05.02c.79-.08,1.53-.2,1.73-.26-.72-.24-.91-.36-1.79-.36-.56.06-.99.22-1.09.46l-.06.18c-.58.06-1.17.12-1.59.22-1.17.3-1.69,1.19-2.76,1.59-1.19.36-1.95.34-2.66.73-.52.28,1.03.38,1.01.68-.08.64-1.07.93-.32,1.05.91.16,2.16.1,3.06.4,1.49.85,1.09,1.31-.36,1.31h-.04c-.95-.06-2.32-.4-3.69-.58-2.4-.2-4.84-.54-6.29-.58-.68-.02-1.35-.04-1.91-.04-7.7,0-4.13,1.47-4.33,1.59-.79.24-1.35.38-1.79.48-10.7,33.49-17.67,68.26-19.24,103.12.67-.02,1.29-.04,1.93-.08.4-.32.85-1.15,1.81-1.17h.04c1.67,0,1.65,2.18,2.46,2.96l2.96.62h.12c1.13,0,2.58.2,3.95.38,1.37.2,2.68.4,3.53.4h.52c.44.06,1.15.12,1.77.2l.81-.54c.52.14,1.45.36,2.24.5.87-.02,1.95-.44,3.02-.44.46-.04.89-.1,1.29-.1s.85.06,1.33.16c1.05.32,1.57,2.05,2.26,3.04.89,1.17,3.38,2.7,5.18,2.7l.34-.02c.48,0,1.13.06,1.71.16-.32.2-.46,1.03-1.19,1.17-.22.1-.48.12-.71.1h-.54c-.28,0-.62.02-.97.24,1.27,1.13,2.32,3.53,5.12,3.57,2.32-.04,2.62-1.85,3.77-2.88h.73l-.54,1.09c0,1.03.87,1.95.89,3.24,0,.99-.38,1.13-.42,2.22l-.1-.04.16,1.11c0,1.49.97,2.98,1.51,4.57.64,1.77,1.37,4.17,1.79,5.34.36,1.03.36,1.47,1.09,2.54.71,1.01.28,1.97.99,3.24.24.46,1.55,1.41,1.93,2.54.62,1.65,1.61,3.24,2.32,5.14l.81.77c.08.4.56.83,1.29.83h.04c.52-.04.79-.97,1.15-1.59.44-.85.6-.46,1.69-.93.5-.3.42-2.36,1.71-2.7l.89-.34.42-.06c-.06-.5-.3-1.39-.42-2.06-.02-1.53,1.01-2.72,1.07-4.73-.06-1.29-.6-3.04-.62-4.51.06-1.65,1.85-1.27,3.47-1.77.44-.12,1.55-1.15,2.3-1.85,1.73-1.63,3.22-3.24,5-4.94,1.43-1.31,3.83-1.67,5.48-3.2.72-.73.64-1.61.99-2.82.3-.73,2.04.2,2.7-1.07.67.5.68.85,2.1.89,2.26,0,4.61-.44,4.55-2.9,1.33.2,2.66.77,3.1,1.93.32,1.01.22,2.28.89,3.32.77,1.05,1.67,1.73,2.8,2.68.99,1.31,1.43,1.51,2.08,3.16l.5,1.01c-.06.89-.38,1.31-.38,2.32.02,1.03-.22,1.75,1.05,1.75,2.36,0,3.14-1.99,4.57-3.3.3.38.22.75.77,1.23l1.05.4c.77,1.23-.56,3.38.5,3.47,0,2.46,1.71,5.94,1.73,9.41l-.42,2.92c-.24,1.09-.81,2.01-.81,3.08l-.02.48c.24.16.38.2.42.2.14,0,.08-.18.64-.22,1.39.08,1.81,2.74,2.36,3.81.87,1.79.89,3.26,1.67,5.5.77,2.48,2.94,4.61,5.32,5.32.38.12.52.64,1.21.64h.06l.58-.32,1.01-.12c-.32-.79-.38-1.17-.64-2.14-.36-.91-1.45-1.31-1.35-2.64-.04-.52.32-.66.34-1.45,0-3.79-4.49-4.13-6.67-6.12-.62-.56-.58-1.87-.93-2.42h.16c0-2.24-2.24-1.43-2.3-3.85.08-2.12,1.39-2.98,1.41-5.42,0-.5.77-1.59.85-2.34-.02-.3-.16-.89.44-.91.93.02,1.75.18,2.01,1.09l.36,1.03c1.31.44,2.28.5,3.36,1.61.93,1.01.04,2.18,1.73,2.18-.08,1.23,1.41,1.59,2.52,1.59h.04l.52,1.21c-.22.14-.3.44-.32,1.11l.58,1.57c.26-.04,1.73-1.19,1.79-1.99l.02-.89.2.71c.93,0,.77-1.23,1.63-1.77,1.91-1.07,2.1-1.87,4.35-2.52.08-1.47.83-2.1.87-3.97-.06-2.62-1.37-5.44-3.04-6.77-1.81-1.31-2.54-3.36-4.29-5.24-.2-.28-.6-.52-.68-1.21.08-3.49,3.41-3.87,4.82-6.23.4.2.68.26.91.26l.32-.04.3-.02c.26,0,.56.08,1.03.34-.02.3,1.73,3.2,2.28,3.3.87-.02-.06-1.09.5-1.67.44-.5,1.89-.66,2.44-.95.56-.24,1.19-.26,1.79-.26h.42c.71,0,1.33-.02,1.75-.4l.75-1.33c.72,0,.16-.32.56-.32h.34c3.04,0,3.85-1.71,5.56-2.78.54-.2.79-.48.91-1.21h.04c1.53,0,1.75-2.42,2.22-3.71.34-.77,1.75-3.32,2.64-3.51-.12-1.47.75-2.05.54-4.01-.26-2.92-.87-3.1-2.16-5.06-.12-.32-.32-1.11-.87-1.55l.04-.06-.12-.02-.2-1.25c-.48-.18-1.73-.91-1.83-1.85-.08-.83,1.35-.87,1.55-1.65.14-.6.52-.75,1.01-.75l.58.04.62.04c.44,0,.85-.08,1.17-.4-.62-.77-1.29-.24-2.24-.93-.4-.28-.81-1.53-1.47-1.63h-.04c-.46,0-.16,1.95-.54,1.95-.5-.08-1.07.08-1.59-.34-.77-.66-.71-1.93-1.53-2.5l-1.39-1.05c-.08-.71.62-.71,1.37-.71.4,0,.81,0,1.09-.12.68-.3,1.91-.87,2.3-1.39.12-.16.16-.5.73-.5l.12.02,1.25,1.11c.12.79-.87.93-.81,1.83l.44.04c.58,0,1.05-.24,1.51-.48.5-.22.99-.46,1.61-.46l.46.04c.71.16,1.01.68,1.81.87-.2.5.12.42.18,1.07.04.44-.52.3-.46.89l.68.95.71-.1c.73.16,1.51,1.41,1.69,2.14l-.73.64.1.64.6.52.4,1.13-.26,1.37.32.66-.22.79.81.12c.34-.38.32-.3.95-.4,0-.5,1.11-.4,1.47-.46.64-.18.89-.73.64-2.2-.34-2.42-1.45-4.41-2.66-5.74-.56-.5-1.15-1.03-1.15-1.85l.36.06c.42,0,.75-.2.99-.44l1.23-.83c.44-1.13,1.95-2.5,2.8-3.06,0,0,.46,1.27,1.77,1.69l.48.08c2.14,0,2.86-3.87,3.75-4.88.4-.38.75-1.37.67-2.32-.18-1.03-.58-1.57-.38-2.38l.02-.04c-1.25-2.01-2.54-4.01-3.87-5.94-1.37-.42-2.66-2.24-2.76-2.4l.28-1.11c-8.82-12.01-14.87-34.41-27.3-43.08l-.81-.36-1.05-.91c-.38-1.03-2.18-3.83-2.9-4.13-1.75-1.79-4.88-9.73-6.45-10.3-1.77-.69-2.42-.95-3.02-1.31-5-.22-9.23-1.51-9.23-1.51l.22-.02c.79,0,2.86.26,5.02.56,2.2.26,4.47.54,5.64.54.38,0,.68-.04.77-.12.3-.48.2-.54-.99-1.25l-.77-.02c-.62-.36-1.35-1.07-2.82-1.53-2.16-.6-4.35-1.05-6.63-1.51-.83-.71-2.16-1.39-4.84-2.01-1.87-.44-2.94-.6-3.83-.6-.64,0-1.19.1-1.85.16-1.19-.04-9.07-.16-8.7-1.17-1.47-.08-6.19-.54-10.68-.54h-.06Z"/>
    </clipPath>
    <radialGradient id="radial-gradient-37" cx="8963.73" cy="6088.14" fx="8963.73" fy="6088.14" r="20.15" gradientTransform="translate(-79739.73 -118053.64) rotate(90) scale(13.19 -13.19)" xlink:href="#radial-gradient-3"/>
    <clipPath id="clippath-37">
      <path class="cls-10" d="M556.17,256.92l-1.01.18c.3.1.28.32,1.03.44,1.09.14,2.16.26,3.24.4l2.12.34c.93.18,3.04.64,3.79.64l.26-.1c-.24-.36-2.7-1.27-3.59-1.43l-1.01-.08c.56-.06.24.04.04-.32l-.81-.16c-.75-.18-1.31-.26-1.73-.26-.97,0-1.43.28-2.34.34"/>
    </clipPath>
    <radialGradient id="radial-gradient-38" cx="8963.85" cy="6088.11" fx="8963.85" fy="6088.11" r="20.15" gradientTransform="translate(-79818.05 -118152.3) rotate(90) scale(13.19 -13.19)" xlink:href="#radial-gradient-3"/>
    <clipPath id="clippath-38">
      <path class="cls-10" d="M493.1,254.49c-3.53.32-6.85,1.47-10.62,1.77l-.34.02c-.24,0-.44-.02-.64-.06-.2-.02-.4-.04-.64-.04l-.44.02c-.77.1-1.09.22-1.39.28-.18.54-.38,1.11-.56,1.67h.02c.46-.16,1.01-.32,1.91-.4.85-.08,1.19-.42,1.61-.56,2.38-.54,4.05-.48,6.59-.97,1.77-.32,7.17-.69,7.31-1.35-.06-.28-1.39-.38-2.3-.38h-.5Z"/>
    </clipPath>
    <radialGradient id="radial-gradient-39" cx="8963.65" cy="6088.16" fx="8963.65" fy="6088.16" r="20.15" gradientTransform="translate(-79854.65 -118051.93) rotate(90) scale(13.19 -13.19)" xlink:href="#radial-gradient-3"/>
    <clipPath id="clippath-39">
      <path class="cls-10" d="M540.27,253.26c.54.14,1.55.34,2.24.34.4,0,.71-.06.77-.26l-2.68-.6-1.73-.04,1.41.56Z"/>
    </clipPath>
    <radialGradient id="radial-gradient-40" cx="8964.25" cy="6088.01" fx="8964.25" fy="6088.01" r="20.15" gradientTransform="translate(-79874.26 -118201.66) rotate(90) scale(13.2 -13.2)" xlink:href="#radial-gradient-3"/>
    <clipPath id="clippath-40">
      <path class="cls-10" d="M542.75,252.37c-.52.04-1.11.08-1.83.08h-.71c1.79.42,2.96.69,4.86.97.38.12,2.05.36,2.72.46-1.99-.14-2.6-.06-4.69-.2.99.28,2.8,1.01,3.63,1.11,2.36.36,4.43.99,7.29,1.51.32.04.68.12.91.12l.26-.14-1.01-.38,1.15.02.08-.24h.3c-.89-.44-.89-.52-2.18-.73l-1.25-.22c-.72-.06-1.17-.36-1.95-.5-.5-.14-.73-.22-1.33-.22h.83l.28-.06-.12-.34c.24.08.14.02.77.12-1.11-.38-2.18-.95-4.01-1.25-.95-.14-1.67-.16-2.3-.16s-1.15.02-1.69.06"/>
    </clipPath>
    <radialGradient id="radial-gradient-41" cx="8963.67" cy="6088.16" fx="8963.67" fy="6088.16" r="20.15" gradientTransform="translate(-79813.11 -118115.52) rotate(90) scale(13.19 -13.19)" xlink:href="#radial-gradient-3"/>
  </defs>
  <g class="cls-52">
    <g id="Layer_2" data-name="Layer 2">
      <g>
        <g class="cls-72">
          <rect class="cls-30" x="307.74" y="221.3" width="385.83" height="357.91"/>
        </g>
        <g class="cls-62">
          <rect class="cls-23" x="300.62" y="249.47" width="242.09" height="240.71" transform="translate(-137.66 411.34) rotate(-45.5)"/>
        </g>
        <g class="cls-50">
          <rect class="cls-40" x="602.19" y="446.68" width="2.62" height="2.97" transform="translate(8.76 907.89) rotate(-74.3)"/>
        </g>
        <g class="cls-76">
          <rect class="cls-43" x="596.86" y="445.8" width="1.44" height="1.42" transform="translate(6.01 900.96) rotate(-74.3)"/>
        </g>
        <g class="cls-63">
          <rect class="cls-28" x="598.96" y="444.24" width="2.77" height="4.21" transform="translate(8.22 903.52) rotate(-74.3)"/>
        </g>
        <g class="cls-83">
          <rect class="cls-37" x="604.72" y="442.54" width="3.24" height="5.54" transform="translate(13.61 908.56) rotate(-74.3)"/>
        </g>
        <g class="cls-56">
          <rect class="cls-25" x="609.41" y="442.82" width="5.83" height="6.84" transform="translate(17.06 915) rotate(-74.3)"/>
        </g>
        <g class="cls-59">
          <rect class="cls-6" x="581.04" y="438.77" width="59.73" height="58.37" transform="translate(-4.89 929.47) rotate(-74.3)"/>
        </g>
        <g class="cls-77">
          <rect class="cls-39" x="581.5" y="434.62" width="10.08" height="20.36" transform="translate(-.36 889.12) rotate(-74.3)"/>
        </g>
        <g class="cls-71">
          <rect class="cls-35" x="614.65" y="433.18" width="2.01" height="1.87" transform="translate(31.17 909.36) rotate(-74.3)"/>
        </g>
        <g class="cls-84">
          <rect class="cls-41" x="618.41" y="431.07" width="2.41" height="4.25" transform="translate(34.93 912.48) rotate(-74.3)"/>
        </g>
        <g class="cls-46">
          <rect class="cls-8" x="621.55" y="424.23" width="18" height="20.06" transform="translate(41.88 923.8) rotate(-74.3)"/>
        </g>
        <g class="cls-67">
          <rect class="cls-7" x="599.75" y="424.47" width="17.91" height="14.86" transform="translate(28.24 901.05) rotate(-74.3)"/>
        </g>
        <g class="cls-51">
          <rect class="cls-33" x="616.48" y="423.16" width="4.18" height="2.73" transform="translate(42.51 905.14) rotate(-74.3)"/>
        </g>
        <g class="cls-81">
          <rect class="cls-38" x="616.91" y="424.58" width="1.87" height=".79" transform="translate(41.62 904.87) rotate(-74.31)"/>
        </g>
        <g class="cls-55">
          <rect class="cls-2" x="551.57" y="415.96" width="29.94" height="28.74" transform="translate(-1.03 859.31) rotate(-74.3)"/>
        </g>
        <g class="cls-47">
          <rect class="cls-20" x="580.6" y="412.27" width="28.28" height="25.54" transform="translate(24.64 882.6) rotate(-74.3)"/>
        </g>
        <g class="cls-82">
          <rect class="cls-34" x="514.52" y="408.82" width="10.82" height="7.92" transform="translate(-18.13 801.63) rotate(-74.3)"/>
        </g>
        <g class="cls-80">
          <rect class="cls-15" x="608.03" y="406.51" width="10.85" height="10.32" transform="translate(51.17 890.87) rotate(-74.3)"/>
        </g>
        <g class="cls-74">
          <rect class="cls-16" x="612.85" y="406.63" width="1.65" height="1.73" transform="translate(55.35 888.04) rotate(-74.3)"/>
        </g>
        <g class="cls-45">
          <rect class="cls-22" x="611.74" y="405.46" width="2.75" height="1.97" transform="translate(55.96 886.75) rotate(-74.31)"/>
        </g>
        <g class="cls-60">
          <rect class="cls-14" x="609.63" y="405.47" width="4.48" height="3.3" transform="translate(54.4 886.02) rotate(-74.3)"/>
        </g>
        <g class="cls-70">
          <rect class="cls-44" x="600.32" y="404.4" width="6.28" height="6.21" transform="translate(47.87 878.2) rotate(-74.3)"/>
        </g>
        <g class="cls-85">
          <rect class="cls-29" x="608.95" y="403.16" width="3.75" height="2.98" transform="translate(55.98 883.2) rotate(-74.3)"/>
        </g>
        <g class="cls-68">
          <rect class="cls-18" x="612.32" y="402.36" width="5.53" height="3.64" transform="translate(59.57 886.98) rotate(-74.3)"/>
        </g>
        <g class="cls-54">
          <rect class="cls-27" x="611.77" y="401.51" width="1.98" height="1.84" transform="translate(59.53 883.43) rotate(-74.3)"/>
        </g>
        <g class="cls-58">
          <rect class="cls-11" x="606.7" y="399.37" width="3.06" height="2.83" transform="translate(57.83 877.9) rotate(-74.3)"/>
        </g>
        <g class="cls-66">
          <rect class="cls-36" x="602.42" y="389.34" width="14.84" height="11.1" transform="translate(64.68 875.15) rotate(-74.3)"/>
        </g>
        <g class="cls-86">
          <rect class="cls-12" x="584.28" y="384.41" width="4.99" height="5.22" transform="translate(55.42 847.19) rotate(-74.3)"/>
        </g>
        <g class="cls-79">
          <rect class="cls-1" x="603.85" y="375.76" width="7.01" height="5.42" transform="translate(78.68 860.77) rotate(-74.3)"/>
        </g>
        <g class="cls-69">
          <rect class="cls-32" x="450.59" y="371.59" width="23.68" height="17.57" transform="translate(-28.88 722.65) rotate(-74.3)"/>
        </g>
        <g class="cls-75">
          <rect class="cls-21" x="617.94" y="360.3" width="5.53" height="4.5" transform="translate(103.73 862) rotate(-74.3)"/>
        </g>
        <g class="cls-49">
          <rect class="cls-19" x="622.52" y="359.4" width="3.35" height="3.71" transform="translate(107.53 864.43) rotate(-74.3)"/>
        </g>
        <g class="cls-48">
          <rect class="cls-26" x="619.12" y="349.16" width="14.33" height="14.19" transform="translate(113.87 862.8) rotate(-74.3)"/>
        </g>
        <g class="cls-61">
          <rect class="cls-9" x="627.16" y="344.16" width="6.98" height="5.71" transform="translate(125.95 860.25) rotate(-74.3)"/>
        </g>
        <g class="cls-87">
          <rect class="cls-42" x="476.49" y="263.55" width=".54" height=".65" transform="translate(93.73 651.45) rotate(-74.3)"/>
        </g>
        <g class="cls-65">
          <rect class="cls-31" x="436.79" y="237.61" width="209.33" height="209.17" transform="translate(65.53 770.88) rotate(-74.3)"/>
        </g>
        <g class="cls-53">
          <rect class="cls-13" x="557.83" y="252.42" width="5.09" height="10.69" transform="translate(160.62 727.5) rotate(-74.3)"/>
        </g>
        <g class="cls-64">
          <rect class="cls-4" x="483.05" y="247.42" width="8.25" height="17.79" transform="translate(108.61 655.98) rotate(-74.3)"/>
        </g>
        <g class="cls-73">
          <rect class="cls-3" x="540.03" y="250.9" width="2.07" height="4.49" transform="translate(150.98 705.54) rotate(-74.3)"/>
        </g>
        <g class="cls-57">
          <rect class="cls-24" x="543.88" y="246.35" width="8.15" height="16.03" transform="translate(154.83 713.07) rotate(-74.3)"/>
        </g>
        <g class="cls-78">
          <path class="cls-17" d="M443.61,360.92c-1.11.08-1.67,1.35-1.69,2.42-.02.71-.06,1.19.06,1.63.38,1.73,2.42,4.8,4.31,5.16-.04.83.46,1.19.48,1.71,1.03-.28.91-1.17,1.67-1.41l.06.83c-.04.91-.67,1.49-.64,2.4.02,1.03,1.85,1.51,3.1,1.51h.2c2.68-.1,4.17-.81,5.34-1.79.04-1.45.1-2.92.18-4.37-.73.02-1.45.04-2.22.06-1.31-.36-1.89-1.27-2.72-2.01-1.01-.85-2.24-.34-3.12-1.15l-.34-1.31c-.85-1.59-2.38-3.67-4.51-3.67h-.16ZM451.35,327.01c-2.6.2-3.59.87-5.58,1.57l-2.88,1.03-2.03,2.58c-.06.79,1.41,1.43,1.41,1.89-.14,1.81,2.56,4.65,4.59,5.28-1.29.58-1.45,1.75-2.36,2.74l-1.05-.02c.02.58.6.46.91.83.58.62-.16,1.09.24,1.71.36.58,1.23.97,2.14,1.09.62.1.87.85,1.25,1.19.3.28.97.36,1.71.36.66,0,1.39-.08,1.85-.16,1.35-.08,2.74-.36,3.75-.6l.06-1.29.06-1.57.14-1.31c.04-1.05-.75-1.61-2.42-1.71.26-.79,1.07-1.95,1.63-2.03.83,0,1.53-.1,2.36-.14,0-.83-1.21-1.57-1.29-2.4-.58.06-2.22.79-2.72.97.1-2.08-2.14-2.32-3.47-3.95-.42-.52-1.59-.38-1.57-1.41.18-.02,3.32-1.57,5.44-1.71l.62-.02c.26,0,.54.02.81.02.28.02.56.04.83.04.64,0,1.27-.08,1.87-.38-1.29-1.29-2.03-2.64-5.06-2.64-.36,0-.79.02-1.25.06M439,481.76c-1.79-.24-3.51-2.2-3.73-3.79-.12-.83.08-1.17-.08-1.53-.91-.71-1.09-1.67-1.19-2.62l1.25-1.11,1.03-2.76c-.08-.75-1.29-2.48-1.45-3.53-.28-3.3,2.2-2.76,4.27-3.79,1.63-.79,3.67-3.16,4.77-4.23l.3-2.06c2.64.54,2.76,4.94,3.61,6.85l.08,1.05-1.31-.44c.4,5.06-.97,8.16-2.2,11.67-.91,2.66-1.15,6.35-4.65,6.33-.24,0-.46-.02-.71-.04M383.75,353.79c.52-.16.91-.75,1.51-.75l-.3.66-.3.66.04.83-.3.44-.32-.14c-.73-.04-.99-.83-1.65-.91l-.5-.1.06-.38c.42-.34.68-.44.91-.44l.34.06.36.06h.16M410.89,354.49l-.28-.28c1.01-.54,2.72-1.31,3.87-1.65-.24.62-.54.46-.91.64l-.18.64c-.3.34-1.53.87-2.1.91l-.4-.26ZM378.43,352.64l.44-1.11-.1-.95c.4-.34.36-.75.89-.95l.4.14c.08.66-.04,1.27-.26,2.01-.2.75-.79,1.59-1.25,1.79l-.18.04c-.32,0,0-.64.06-.99M379.74,347.52l.26-.2.68-.73v.48c-.3.64-.67,1.81-.81,2.16h-.02c-.62,0-.04-1.21-.12-1.71M452.74,268l.99-.66.87-.34c.24-.04.44-.06.64-.06l.52.02.54.04.54-.04-.06.32c-.89.28-1.71.66-2.92.81-.38.08-.68.14-.89.12l-.24-.2M471.66,263.54h-.02l.22.02-.2-.02ZM402.37,287.04c-60.04,59.92-87.92,129.35-23.63,193.76,31.91,31.97,79.86,56.03,127.41,64.83-33.99-48.13-48.62-101.16-49.74-154.67l-.08.34c-2.3.38-6.79.66-6.91,2.38l.3.69c-1.87.89-3.71,1.45-5.72,1.93-.99.26-4.05,2.52-5.06,2.98-.99-.08-1.95-.16-2.96-.24-1.35.95-1.53,2.18-3.2,2.18l-.48.28-2.38-1.03c-.16-.1.44-.08-.1-.87-.77-1.19-.5-2.74-.56-4.19-.81-.08-.2-1.67-.08-2.18.38-1.71-1.27-2.52-2.08-3.34-.91-.91-2.5-3.18-2.4-4.96-2.56-.56-3.08-1.97-2.98-4.75,0-1.75-1.01-2.01-1.25-3.38l-.89-.89-1.39-.28-.3-1.93c-.22-.73-.66-1.31-.89-1.67-.75-1.25-1.41-1.87-2.08-3.02l-1.03-1.59c0-.5.26-1.41.52-2.24-.4,1.05-1.23,2.86-1.49,3.55-1.33-.12-2.32-3.12-3.28-4.21l-.08,1.17c1.59,3.81,3.43,7.74,5.24,11.79-.36,1.55,1.33,2.88,2.44,3.77-.06,1.29-.16,2.52-.14,3.85.62,1.97,2.22,3.55,3.22,5.06,1.23,1.79.44,3.67,1.71,4.98,1.17,1.19,1.83,1.23,3.28,2.22,1.11.95,1.77,3.97,4.29,3.99,0,1.33.77,1.47-.04,2.36,1.01.81,1.99,3.14,3.3,3.18,1.27,0,1.23-.93,2.32-1.25.32-.1.6-.14.89-.14.3,0,.58.04.91.08.3.04.62.08.95.08h.38c3.02-.48,5.3-1.73,8.24-2.48l.56,1.17c-.1,4.47-3.75,10.74-5.68,13.34-2.4,3.02-3.24,4.96-6.04,7.03-2.08,1.57-4.03,2.64-5.92,3.91-.75.56-.68,3.22-1.41,3.87-1.69,1.49-3.67,1.11-4.29,3.77-.42,1.79-2.24,2.08-2.08,4.09.22,2.2,1.53,4.13,1.73,6.23.22,2.4,3,4.33,3.24,5.62l-.4.97c0,.5-.06,1.11-.06,1.55.1,1.53.32,2.86.44,4.33l.71,1.41c.12,1.59-.72,2.08-1.95,2.08-.87,0-1.95-.26-3.02-.5-1.09-.26-2.16-.5-2.98-.5-.95,0-1.59.3-1.65,1.31h-.04c-.89,0-1.71.73-1.55,1.59.34,1.69,1.75,1.51,2.2,3.77.18,1.23.42,3.57-.06,4.09-.26.24-.71.28-1.17.28h-.34l-.34-.02-.52.04c-2.2.4-1.13.42-1.55,1.73.58.38,1.05.85,1.17,1.33.32,1.61-.48,2.64-1.03,3.14-1.03.87-1.81.69-2.46,1.47-1.03,1.33-1.23,2.54-3.16,2.94h-.1c-.28,0-.68-.12-1.11-.24-.4-.12-.81-.24-1.07-.24-.22,0-.36.08-.32.32-.68-.16-.85-.04-1.41-.18-.48-.28-.97-.75-1.53-.97-.48-.16-.85-.2-1.13-.2-.36,0-.62.06-.87.14-.26.08-.48.16-.79.16-.26,0-.54-.06-.93-.18-.77-.38-1.27-.93-1.77-1.53l-.34.02c-.38-.89-.68-1.63-1.13-2.18.46-.52-.06-.99-.44-1.47-1.45-2.06-3.08-4.75-3.49-5.2-2.03-2.3-3.63-4.37-4.96-8.97l-.38-1.43-.04-.1s.04.77.08,1.51c.04.77.06,1.51-.08,1.51l-.12-.12c-1.81-2.96-3.48-5.36-4.31-9.03-.85-3.97.95-4.84.52-7.94-.34-1.51-.79-2.16-1.11-3.55-.71-2.62-1.17-3.59-1.77-5.22-.46-1.31-.46-2.62-1.19-3.81-1.29-2.28-3.73-5.52-3.95-8.38-.08-.73.24-1.97.62-2.32-.24-.58-.12-.71-.08-.93-.08-.79-.14-2.52.14-3.06-.54-1.43-1.25-2.68-2.5-2.88h-.14c-.24,0-.5.02-.77.06-.26.02-.52.04-.77.04l-.38-.04c-.99-.2-.16-3.85-1.41-4.01l-.24-.02c-1.45,0-2.62,1.25-3.53,1.77-.28.24.16.89-.52.89l-.2-.02-.36-.14c-.48-4.49-.71-9.01-.71-13.58.02-14.28,2.44-28.03,6.87-40.9.99-.93,1.69-1.87,2.54-2.24l.95.14c.62-.28.62-.93,1.49-1.33l.16-.02.22.08.2.08.34-.1c.77-.22.79-1.03,1.59-1.31l.14-.02.34.38.28.36.14-.02.64-.54c-.24.91-.75.91-.87,1.69-.12.5.26.6.28,1.15-.22.89-.68,1.51-.89,2.36-.12,1.37.48,2.38,1.15,2.38l.18-.02c.4-.04.56-.18,1.15-.24l.52-.06c1.11,0,1.99.71,2.98,1.41.99.69,2.04,1.39,3.53,1.39.22,0,.46-.02.73-.06l1.11-1.11.14-1.29c.28-2.05,1.53-2.2,3.18-3.12l.14.1,1.17-.18c-.06.89.48.97.66,1.39.14.24.42.32.75.32l.64-.06.67-.04.52.06c1.47.5,3.48,1.07,5.4,1.07.34,0,.69-.02,1.03-.06,1.97-.2,1.05-.77,2.96-.97l.38-.04c.46,0,.93.1,1.41.16.5.08,1.01.16,1.55.16l.54-.02c1.01-.06,1.15.02,2.01-.32l.22.64-.32-1.03.58-.81c.64-1.61.87-2.36,1.39-3.73.58-1.45,1.95-1.81,2.08-3.45.1-1.17-.08-2.08-.04-2.86l.54-.73.08-.66c-.6.26-.83.71-1.35.75l-.24.02c-.5,0-.81-.2-1.03-.4-1.13.95-1.57,1.79-3.42,2.03l-.18.02c-.6,0-1.13-.32-1.65-.66-.52-.32-1.07-.64-1.65-.64h-.2c-1.33.24-1.29,1.57-2.34,1.79h-.14c-.44,0-.77-.22-1.07-.46-.3-.24-.58-.48-.95-.48l-.56.2-.62.1.52-.46c-.32-.3-1.79-.95-1.17-1.73-.42-.71-.97-1.15-1.67-1.35.6-.58,1.17-.62,1.37-1.51l.1-.6-.93-.06c.38-1.53,5.16-1.59,6.33-2.22l-.4-.48,1.45-.48c.68-.14,1.27-.22,1.91-.32.75-.16,1.93-.95,2.7-1.37.87-.52,2.62-.87,3.75-1.03.28-.02.48-.04.66-.04.48,0,.79.1,1.03.2.26.08.52.18.97.18l.46-.02c.04.48,1.59.58,2.62.58.24,0,.48,0,.64-.02,1.31-.18,2.58-.26,3.93-.44,1.37-.2,2.4-1.01,3.61-1.55l-.28.08c.28-4.15-7.31-3.28-8.62-5.82,4.01-1.37,2.48-2.34,2.38-2.62l1.33-.99c-1.93.81-6.73,2.84-6.93,3.16-.08.5.48.54.85.54h.14l1.79-.1c-.64.54-3.89,1.97-4.75,2.2l-.06.02c-.5,0-1.19-.71-2.06-1.43l1.33-1.05c-.28.04-.56.06-.81.06-.62,0-1.17-.08-1.59-.16-.44-.06-.77-.14-.99-.14h-.08c-1.33.3-1.91,2.05-3.24,2.64l-.06.71c-.68.2-1.25.58-1.37,1.03-.34.81-.28.44-.5.73l-.2,1.25c-.71.6-1.83,1.67-1.99,2.4-.14.95,1.25,1.29,1.59,1.73l-.81.3c-.56.24-1.49.48-2.16.73-.75.5-1.13.46-1.91.56l-.28.02-.54-.12c-.14-.06-.32-.12-.58-.12l-.38.04c-.93.22-1.19.64-1.89.99l-.18,1.03-.22.04c-.28,0-.4-.12-.5-.24l-.4-.22-.12.02-.67.64.81.83-.3.6c-.04.14,1.15.99,1.65.99l.14.4-1.07,1.21-.12.02c-.54-.02-.89-.91-1.15-1.21l-.06.38.06,1.67c-.06.34-.89,1.15-.22,1.43l-.75.14h-.1c-.83,0-1.63-1.11-1.45-2.08l.91-1.61-.89.18-.18-.46c-.18-.66-.36-.89-.81-1.27-.46-.42-.24-.58-.04-1.57l.24-1.21c.12-.64-.77-1.37-1.33-1.45-.6-.18-1.29,0-1.17-.6l-.62.18-.26.04c-.87,0-1.55-1.35-1.39-2.2-.42.1-.62.26-1.23.42l-.24-.97c-.54.48-1.43.75-1.49,1.25l.14.18-.36.83c-.18.62-.22.75.56.77.54.02.72.54.72.99,0,.56-.1,1.49.42,1.61l.2.02c.48,0,.91-.32,1.49-.46l-.12.38c-.3.62.58.42.95.6.79.18,2.03.62,1.69,1.63h-.12l-.48-.16c-.14-.08-.26-.18-.52-.18l-.24.02c-.56.18-.73.89-.83,1.33-.1.62.36.12.26.79l-.54.79c-.52.56-.62,1.55-1.31,1.69l-.44-.18c.54-.14.85-.91.99-1.45.14-.73-.28-.77-.2-1.17l-1.63-1.91-.71-.2-.36.02c-.89,0-1.05-.3-1.49-.75l-.71-.44c.26-1.23-.02-1.99-.77-1.99-.22,0-.46.06-.75.18-.61.24-.69.71-1.11,1.11-.72.66-1.27,1.65-1.99,1.91l-.42.14-.12-.06-.16-.04-.22.04c3.18-6.77,6.95-13.26,11.24-19.36l.24.26c.95-.52,2.01-1.55,2.82-1.87l-.38.46.52.12.77-.58c.85-.5,1.03-.48,1.79-.93.36-.3,1.23-.93,1.77-1.19.6-.2.99-.4,1.45-.46l-.28.38c.52-.18,1.13-.4,1.65-.66.5-1.09,1.87-1.29,2.34-2.44.24-.75,1.69-2.94,2.54-3.22l.38-.1.4.14.46.12.48-.1,1.15-1.65-.4-.16c-.26,0-.54.14-.83.26-.3.14-.58.28-.87.28l-.14-.04c-.6-.2,2.78-2.62,3.99-3,1.13-.36,2.82-.48,3.73-.75.68-.24,1.59-1.19,2.34-1.65l-.34-.12c-.26,0-.67.1-1.07.18-.4.08-.81.16-1.13.16l-.36-.06c-.77.75-1.85,1.31-2.8,1.63-1.07.5-1.61.5-2.44.85-.32.14-.5.2-.6.2l-.1-.28c-.42.18-.83.28-1.13.28-.38,0-.6-.14-.54-.46l.89-.85-.24-.58.7-1.41c1.91-.85,2.04-1.43,3.37-2.38.85-.48,3.2-2.18,3.47-2.7.1-.24-.02-.34-.28-.34-.48,0-1.39.34-2.22.68-1.53.62-2.88,1.65-3.24,2.4l-.28.58c-.28.6-2.74,2.32-3.79,3.06-.89.54-1.55,1.01-2.16,1.69-.46.54-.32.81-1.01,1.31l.34.44.14.32.28-.06c.46,0,.36.5.18.95-.2.36-1.55,1.61-2.16,1.85-.83.42-1.15,1.41-1.37,1.99l.44.22c-.44.83-1.41,1.31-1.75,1.91-.56.24-1.07.3-1.49.6-.77.34-1.39,1.71-2.28,2.2l-.06-1.29.18-.34-.08-.02c6.83-9.03,20.61-31.53,29.58-38.66.58-.32,1.05-.71,1.77-1.11l.08.26c.97-.56,1.39-.83,2.42-1.39-.04.24-.14.36-.02.36l.4-.1c.22-.24.5-.38,1.03-.64.34-.08,1.35-.26,1.93-.38-.75.68-1.17.66-2.62,1.33l.87-.04c.54-.18,1.79-.46,1.95-.6,1.49-.46,2.52-.52,2.74-.54,2.12-.6,3.61-.64,6.53-.93,1.31-.16,2.32-.22,3.06-.22,4.9,0-1.07,2.94-3.95,3.3-2.46.36-3.81.66-6.31,1.41.4.22,1.03.54,1.35,1.09l-.12.93.58.14h.42l.4-.04.12.02.32.04c.83,0,1.77-.73,2.98-.91h-.67c-.44,0-.87,0-1.33.04l-.44-.93c3.36-.26,5.72-.42,6.27-.77.48-.4-.85-.95.06-1.23.85-.34,3.61-3.57,5.04-4.01.77-.2.87-2.74,1.21-2.82.52-.04-1.19-5.42-1.09-5.82l-.89-.77c1.69-1.53.16-1.23.54-1.57.77-.62,1.91-.89,2.94-.89,1.23,0,2.28.38,2.24.85l-3.22.87c-.32.38,1.15.56,1.97.56h.08c3.2-.34,2.36-1.15,4.17-1.93,1.23-.36,2.16-.36,3.55-.87,3.57-1.35,7.15-2.54,8.7-2.54h.04l-1.73.97h.26c3.24,0,8.46-1.89,10.62-2.14h.06c.42,0,.34.22.32.46-.06.22-.06.44.46.44.18,0,.4-.02.72-.08.2-.6.4-1.19.58-1.79l-.4.08c-.26.04-.56.04-.87.04-.79,0-1.59-.12-1.55-.38.06-.18.85-.3,1.63-.3.5,0,1.01.06,1.33.14.6-1.83,1.21-3.69,1.83-5.52-.46.18-.87.34-1.53.46-3.59.69-8.54,2.62-8.86,3.93-.1.81,1.81.73,3.3.95l-.2-.06.44.12h.04l.18.08c-1.87.22-3.67.3-5.46.62l-.44-.12-1.73.24c-.44-.3.26-.64-.77-.64h-.1l-2.04.28-1.11-.24c.16-.58,2.08-.62,2.22-1.15l.08-.32c.22-.46,2.24-.75,3.38-1.03l-.93-.34c.14-.32,3.59-1.13,3.81-1.65l-.4-.28.73-.3c1.03-.12,1.71-.36,2.76-.44,1.75-.28,3.73-1.29,6.33-1.61.4-.04.62-.08.87-.14.56-1.61,1.11-3.22,1.67-4.84l7.88-20.73c-29.74,8.34-58.95,28.91-86.21,56.11"/>
        </g>
        <polygon class="cls-5" points="795.45 668.2 782.68 694.02 788.4 694.02 815.5 639.32 815.72 638.88 810 638.88 798.27 662.51 786.17 639.16 785.98 638.86 780.16 638.84 795.45 668.2"/>
        <polygon class="cls-5" points="467.13 619.91 467.08 675.62 472.56 675.62 472.63 619.91 467.13 619.91"/>
        <g>
          <path class="cls-5" d="M505.8,640.28c-3.36-1.57-6.61-2.38-9.61-2.38-5.36,0-9.85,1.83-13.42,5.46-3.53,3.61-5.32,8.22-5.32,13.68s1.81,9.99,5.38,13.68c3.59,3.71,8.08,5.58,13.32,5.6,3.36,0,6.61-.93,9.63-2.76v2.1h5.48l.04-55.71-5.48-.02-.02,20.35ZM505.78,668.12c-2.82,1.87-5.74,2.82-8.68,2.82-4.05,0-7.31-1.33-9.97-4.03-2.64-2.68-3.99-6.06-3.99-10.07s1.27-7.25,3.75-9.79c2.46-2.52,5.64-3.79,9.45-3.79,3.18,0,6.37,1.01,9.47,2.96l-.02,21.9Z"/>
          <polygon class="cls-5" points="184.48 625.12 204.6 625.14 204.54 675.35 210.43 675.35 210.47 625.14 230.61 625.16 230.61 620.03 184.48 619.99 184.48 625.12"/>
          <path class="cls-5" d="M287.84,637.7c-4.88,0-9.01,1.79-12.25,5.34-3.2,3.57-4.84,8.08-4.84,13.42,0,5.66,1.75,10.4,5.22,14.08,3.49,3.69,7.96,5.56,13.26,5.56,5.2.02,9.95-1.61,14.12-4.84l.34-.26v-6.43l-1.37,1.13c-4.13,3.34-8.38,5.04-12.63,5.04-3.61,0-6.79-1.31-9.43-3.89-2.62-2.56-3.95-5.74-3.95-9.43,0-.38,0-.71.02-1.01l27.99.02v-.83c0-5.44-1.59-9.83-4.77-13.06-3.16-3.22-7.09-4.86-11.71-4.86M277.15,651.72c.73-2.6,1.95-4.67,3.71-6.15,1.95-1.67,4.29-2.52,6.97-2.52,5.42.02,8.74,2.84,10.13,8.68l-20.81-.02Z"/>
          <polygon class="cls-5" points="401.24 619.63 395.14 619.63 377.91 662.74 360.79 620.11 360.57 619.59 358.11 619.59 340.68 662.7 323.7 620.09 323.5 619.55 317.41 619.55 339.61 675.29 339.69 675.5 341.91 675.5 359.38 631.63 376.54 674.99 376.77 675.54 378.9 675.54 400.78 620.77 401.24 619.63"/>
          <path class="cls-5" d="M414.64,637.83c-5.36,0-9.87,1.85-13.46,5.5-3.59,3.65-5.42,8.26-5.42,13.72-.02,5.44,1.81,10.03,5.4,13.68,3.59,3.65,8.1,5.5,13.44,5.5,5.34.02,9.85-1.83,13.42-5.48,3.57-3.65,5.38-8.24,5.38-13.66s-1.79-10.07-5.36-13.72c-3.57-3.67-8.08-5.54-13.4-5.54M423.92,666.96c-2.48,2.6-5.62,3.89-9.33,3.89s-6.87-1.31-9.37-3.91c-2.5-2.62-3.77-5.94-3.77-9.89s1.27-7.31,3.79-9.93c2.5-2.62,5.64-3.93,9.37-3.93s6.81,1.35,9.29,3.99c2.5,2.64,3.77,5.96,3.77,9.91s-1.23,7.23-3.75,9.87"/>
          <path class="cls-5" d="M558.76,619.95h-3.42l-25.57,55.73h6.19l8.48-18.56,25.16.02,8.22,18.07.22.5h6.21l-25.25-55.26-.24-.5ZM546.79,651.99l10.21-22.4,10.24,22.42-20.45-.02Z"/>
          <path class="cls-5" d="M603.17,671.04c-3.89,0-7.01-1.25-9.31-3.67-2.3-2.46-3.47-5.84-3.47-10.07s1.19-7.56,3.51-10.09c4.03-4.45,10.21-5.04,17.79-1.67l1.17.54v-6.1l-.54-.18c-3.53-1.19-6.75-1.77-9.63-1.79-5.22,0-9.57,1.85-12.93,5.54-3.37,3.67-5.06,8.44-5.06,14.2s1.69,10.07,5.02,13.48c3.32,3.45,7.74,5.18,13.14,5.2,3.1,0,6.51-.62,10.09-1.83l.58-.18v-5.76l-1.15.46c-3.2,1.29-6.29,1.93-9.21,1.93"/>
          <path class="cls-5" d="M641.11,640.57c-2.22-1.67-5.06-2.54-8.46-2.54-3.75,0-7.74,1.31-11.85,3.89l-.4.24-.02,6.08,1.37-1.05c3.69-2.88,7.17-4.35,10.32-4.35,4.77.02,6.99,2.03,6.99,6.41v3.71c-6.35.38-11.36,1.69-14.89,3.89-3.81,2.36-5.74,5.66-5.76,9.79,0,2.72,1.03,5.06,3.04,6.95,1.99,1.89,4.47,2.84,7.33,2.84,3.41,0,6.85-1.19,10.26-3.55v2.88l5.48.02.02-27.68c0-3.26-1.15-5.8-3.43-7.54M639.04,667.53c-3.06,2.72-6.1,4.09-9.03,4.09-1.79,0-3.28-.48-4.47-1.47-1.15-.99-1.69-2.14-1.69-3.53,0-2.58,1.47-4.75,4.37-6.47,2.8-1.63,6.31-2.46,10.44-2.46h.4l-.02,9.83Z"/>
          <path class="cls-5" d="M766.29,638.16c-4.75,0-8.84,2.52-12.17,7.52-2.4-5-6.29-7.54-11.54-7.54-4.21,0-7.78,1.79-10.62,5.34v-4.67h-5.42l-.02,37.05h5.4l.02-25.41c2.82-4.61,6.12-6.95,9.85-6.95,2.54,0,4.59.97,6.13,2.86,1.55,1.95,2.32,4.84,2.32,8.54l-.02,20.97,5.48.02.02-24.72c1.61-2.68,3.2-4.65,4.71-5.88,1.47-1.19,3.14-1.77,5.14-1.77,2.64,0,4.69,1.01,6.13,2.96,1.49,2.03,2.26,4.92,2.26,8.52l-.02,20.89,5.42.02.04-22.59c0-4.49-1.21-8.18-3.59-10.94-2.42-2.8-5.6-4.23-9.51-4.23"/>
          <path class="cls-5" d="M705.18,638.1c-4.88,0-9.01,1.79-12.25,5.34-3.2,3.55-4.84,8.06-4.84,13.42,0,5.64,1.75,10.38,5.22,14.08,3.51,3.69,7.96,5.56,13.26,5.56,5.2.02,9.95-1.61,14.12-4.84l.32-.26.02-6.43-1.39,1.13c-4.09,3.34-8.36,5.04-12.63,5.04-3.61,0-6.77-1.31-9.39-3.89-2.66-2.58-3.99-5.74-3.99-9.43,0-.36.02-.69.04-1.01l27.96.02v-.83c.02-5.46-1.59-9.85-4.75-13.06-3.16-3.22-7.09-4.86-11.71-4.86M694.48,652.12c.73-2.6,1.95-4.67,3.71-6.15,1.93-1.67,4.29-2.52,6.97-2.52,5.42.02,8.74,2.84,10.13,8.68l-20.81-.02Z"/>
          <path class="cls-5" d="M251.9,637.66c-4.37,0-8.06,1.77-11,5.3l.02-23.29h-5.44l-.02,55.71,5.42.02.02-25.41c2.94-4.63,6.57-6.97,10.76-6.97,5.94.02,8.82,3.75,8.8,11.4l-.02,20.97,5.44.02v-22.48c.02-4.67-1.25-8.42-3.77-11.16-2.56-2.72-5.98-4.11-10.21-4.11"/>
          <path class="cls-5" d="M677.75,640.44c-3.36-1.57-6.61-2.38-9.61-2.38-5.34,0-9.85,1.83-13.42,5.46-3.53,3.61-5.32,8.22-5.32,13.68s1.81,9.99,5.38,13.68c3.59,3.71,8.08,5.58,13.32,5.6,3.38,0,6.61-.93,9.63-2.76v2.1h5.48l.04-55.71-5.48-.02-.02,20.35ZM677.73,668.29c-2.82,1.87-5.74,2.82-8.68,2.82-4.05,0-7.31-1.33-9.97-4.03-2.64-2.68-3.99-6.06-3.99-10.07s1.27-7.25,3.75-9.79c2.46-2.52,5.64-3.79,9.45-3.79,3.18,0,6.37,1.01,9.47,2.96l-.02,21.9Z"/>
          <path class="cls-5" d="M454.31,637.86c-4.21,0-7.78,1.79-10.62,5.34v-4.67h-5.4l-.04,37.05,5.4.02.04-25.41c2.8-4.63,6.13-6.97,9.83-6.97,2.26,0,4.15.81,5.64,2.38l.28.3,2.98-5.12-.2-.18c-2.14-1.81-4.82-2.74-7.92-2.74"/>
          <path class="cls-5" d="M187.33,762.76c0-2.94.81-5.22,2.38-6.81,1.59-1.61,3.57-2.42,5.92-2.42h.42c-1.49-2.5-2.26-5.88-2.24-10.11,0-5.34,1.47-9.69,4.39-13.1,2.94-3.4,6.79-5.1,11.56-5.1s8.32,1.45,11.18,4.35c2.86,2.9,4.29,6.91,4.29,12.05,0,2.32-.52,4.59-1.55,6.85-1.03,2.26-2.36,3.95-3.97,5.08h11.91l-.02,5.32-33.75-.04c-3.22,0-4.84,1.65-4.84,4.98v3.57c-.02,5.32-.99,9.03-2.94,11.14h-6.17c2.26-1.99,3.38-6.08,3.4-12.29v-3.47ZM202.22,753.53h6.17c3.41,0,6.04-1.05,7.92-3.14,1.89-2.12,2.84-5.06,2.84-8.84,0-3.38-.87-6.06-2.58-8.08-1.73-1.99-3.99-3-6.79-3s-5.2,1.15-7.09,3.45c-1.89,2.3-2.84,5.46-2.84,9.51,0,4.55.79,7.92,2.38,10.11"/>
          <polygon class="cls-5" points="230.26 753.56 279.26 753.6 279.3 707.32 285.35 707.32 285.29 758.92 230.26 758.86 230.26 753.56"/>
          <polygon class="cls-5" points="302.87 753.63 342.74 753.67 342.72 758.97 296.83 758.93 296.89 707.33 302.91 707.35 302.87 753.63"/>
          <path class="cls-5" d="M383.05,759.02l-8.3-.02c-4.17,0-8.36-1.13-12.55-3.38-3.87,2.24-8.08,3.36-12.63,3.36h-8.18v-5.32l8.12.02c3.2,0,5.9-.44,8.08-1.37-2.78-1.99-5.3-4.86-7.56-8.54-2.28-3.67-3.67-7.37-4.21-11.08,2.05-2.76,4.77-4.92,8.16-6.47,3.41-1.57,6.85-2.34,10.38-2.34,6.41,0,11.36,1.43,14.85,4.29,0,4.71-1.11,9.25-3.28,13.64-2.18,4.39-5.16,7.88-8.95,10.46,2.6.95,5.12,1.43,7.54,1.43h8.54v5.32ZM352.3,734.48c1.35,5.82,4.67,10.74,9.95,14.79,6.67-4.45,10.24-10.54,10.7-18.25-1.73-1.21-4.55-1.81-8.4-1.83-2.24,0-4.53.52-6.91,1.55-2.36,1.05-4.15,2.3-5.34,3.75"/>
          <polygon class="cls-5" points="381.73 753.71 421.56 753.75 421.6 707.47 427.64 707.47 427.58 759.05 381.73 759 381.73 753.71"/>
          <polygon class="cls-5" points="445.16 759.07 439.14 759.07 439.18 707.47 445.22 707.49 445.16 759.07"/>
          <path class="cls-5" d="M478.09,759.11c-4.79,0-8.58-1.39-11.34-4.13-2.76-2.74-4.13-6.53-4.13-11.36,0-5.4,1.71-9.65,5.12-12.77,3.4-3.1,7.9-4.65,13.5-4.65h10.26l-.04,27.62,34.79.04-.02,5.3-48.13-.04ZM481.44,731.45c-4.07,0-7.21,1.07-9.45,3.22-2.22,2.14-3.32,5.1-3.32,8.86-.02,6.83,3.08,10.26,9.27,10.26l7.76.02.02-22.34-4.27-.02ZM473.62,712.31c2.38.02,3.55,1.29,3.55,3.83s-1.19,3.77-3.55,3.77-3.51-1.25-3.51-3.79,1.17-3.81,3.51-3.81M484.04,712.33c2.34,0,3.51,1.27,3.51,3.81s-1.17,3.79-3.51,3.79-3.55-1.27-3.55-3.79,1.19-3.81,3.55-3.81"/>
          <path class="cls-5" d="M524.88,753.84h9.29l.02-27.6h6.02v21.11c0,1.99.6,3.57,1.83,4.75,1.23,1.17,2.84,1.75,4.88,1.75l35.72.04-.02,5.3-34.81-.02c-3.77-.02-6.31-1.31-7.62-3.91v3.89l-15.31-.02v-5.3Z"/>
          <path class="cls-5" d="M531.43,765.2c2.36,0,3.55,1.27,3.55,3.81s-1.19,3.79-3.55,3.79-3.53-1.27-3.51-3.79c0-2.54,1.17-3.81,3.51-3.81"/>
          <path class="cls-5" d="M541.84,765.21c2.34,0,3.51,1.27,3.51,3.81s-1.17,3.79-3.51,3.79-3.55-1.27-3.55-3.79,1.19-3.81,3.55-3.81"/>
          <path class="cls-5" d="M554.13,759.17l-6.1-5.3,42.01.04c-1.49-2.38-2.26-5.74-2.26-10.11.02-5.34,1.49-9.69,4.43-13.1,2.94-3.4,6.79-5.1,11.54-5.1s8.32,1.45,11.18,4.35,4.29,6.91,4.29,12.05c0,2.36-.5,4.65-1.53,6.87-1.01,2.22-2.34,3.91-3.99,5.06l33.43.02,6.1,5.32-99.11-.1ZM596.2,753.91h6.17c3.43,0,6.08-1.05,7.94-3.18,1.87-2.14,2.82-5.12,2.82-8.93,0-3.43-.87-6.08-2.6-8.04-1.73-1.93-4.01-2.92-6.85-2.92s-5.14,1.17-7.03,3.51c-1.87,2.34-2.82,5.48-2.82,9.45,0,4.55.79,7.92,2.38,10.11"/>
          <polygon class="cls-5" points="645.78 753.96 655.07 753.96 655.09 726.36 661.11 726.36 661.09 759.28 645.78 759.26 645.78 753.96"/>
          <path class="cls-5" d="M647.16,765.31c2.36,0,3.55,1.27,3.55,3.81s-1.19,3.79-3.55,3.79-3.53-1.27-3.51-3.79c0-2.54,1.17-3.81,3.51-3.81"/>
          <path class="cls-5" d="M657.57,765.32c2.34,0,3.51,1.27,3.51,3.81s-1.17,3.79-3.51,3.79-3.55-1.27-3.55-3.79,1.19-3.81,3.55-3.81"/>
          <path class="cls-5" d="M668.55,753.98l22.61.02c-2.28-13-7.07-21.2-14.37-24.58l2.2-5.18c9.27,3.65,15.27,13.6,18.01,29.9v5.18l-28.45-.04v-5.3Z"/>
          <polygon class="cls-5" points="711.86 754.02 721.16 754.02 721.16 759.34 705.81 759.32 705.87 707.72 711.9 707.74 711.86 754.02"/>
          <path class="cls-5" d="M719.81,759.34v-5.3l69.59.06.02-12.49c0-6.57-4.17-9.85-12.49-9.87h-8.82v-5.54c2.16-4.57,5.44-8.91,9.85-12.98,4.41-4.07,9.11-7.09,14.08-9.09l2.14,5.18c-4.35,1.77-8.44,4.25-12.25,7.45-3.81,3.2-6.55,6.43-8.18,9.71h3.18c5.8,0,10.28,1.21,13.48,3.63,3.18,2.4,4.77,5.92,4.77,10.52l-.02,18.8-75.35-.08Z"/>
          <path class="cls-5" d="M816.06,703.53c-.75,0-2.78.2-6.1.62-3.32.4-5.66.75-7.01,1.01v-3.14l3.22-.46c-1.59-1.07-2.4-2.48-2.4-4.27,0-1.93.64-3.43,1.89-4.49,1.25-1.07,2.92-1.61,5.06-1.61,1.63,0,3.12.34,4.47,1.01l-1.05,3.08c-1.05-.56-2.18-.83-3.36-.83-2.38-.02-3.57,1.15-3.57,3.47,0,1.39.68,2.46,2.05,3.18l1.23-.18c2.1-.32,3.93-.54,5.58-.71l-.02,3.32ZM812.73,759.42h-6.02l.04-51.6,6.02.02-.04,51.58Z"/>
        </g>
      </g>
    </g>
  </g>
</svg>